<svg version="1.1" viewBox="0.0 0.0 868.6167979002624 387.3884514435696" fill="none" stroke="none" stroke-linecap="square" stroke-miterlimit="10" xmlns:xlink="http://www.w3.org/1999/xlink" xmlns="http://www.w3.org/2000/svg"><clipPath id="p.0"><path d="m0 0l868.6168 0l0 387.38846l-868.6168 0l0 -387.38846z" clip-rule="nonzero"/></clipPath><g clip-path="url(#p.0)"><path fill="#000000" fill-opacity="0.0" d="m0 0l868.6168 0l0 387.38846l-868.6168 0z" fill-rule="evenodd"/><path fill="#000000" fill-opacity="0.0" d="m185.35564 48.80971l499.5905 133.85828" fill-rule="evenodd"/><path stroke="#00aeff" stroke-width="4.0" stroke-linejoin="round" stroke-linecap="butt" d="m185.35564 48.80971l499.5905 133.85828" fill-rule="evenodd"/><path fill="#000000" fill-opacity="0.0" d="m184.48163 316.55774l499.65356 -133.88976" fill-rule="evenodd"/><path stroke="#00aeff" stroke-width="4.0" stroke-linejoin="round" stroke-linecap="butt" d="m184.48163 316.55774l499.65356 -133.88976" fill-rule="evenodd"/><path fill="#000000" fill-opacity="0.0" d="m684.94617 145.1378l151.74805 0l0 68.28346l-151.74805 0z" fill-rule="evenodd"/><path fill="#00aeff" d="m721.8071 174.80452q0.4375 -0.96875 1.390625 -0.96875q0.609375 0 1.078125 0.40625q0.484375 0.390625 0.484375 1.0q0 0.359375 -0.15625 0.640625l-7.796875 16.796875q-0.25 0.515625 -0.734375 0.828125q-0.46875 0.296875 -1.03125 0.296875q-0.515625 0 -1.0 -0.296875q-0.484375 -0.3125 -0.765625 -0.828125l-7.75 -16.796875q-0.171875 -0.28125 -0.171875 -0.609375q0 -0.59375 0.546875 -1.03125q0.546875 -0.4375 1.171875 -0.4375q0.40625 0 0.78125 0.234375q0.390625 0.234375 0.59375 0.6875l6.671875 15.0l6.6875 -14.921875zm19.475586 -3.6875q0.640625 -0.03125 1.015625 0.328125q0.375 0.359375 0.375 0.875q0 0.484375 -0.375 0.859375q-0.375 0.375 -1.015625 0.34375l-4.765625 -0.15625l2.515625 4.03125q0.25 0.40625 0.25 0.765625q0 0.46875 -0.390625 0.8125q-0.375 0.34375 -0.859375 0.34375q-0.671875 0 -1.078125 -0.71875l-2.234375 -4.234375l-2.234375 4.265625q-0.40625 0.734375 -1.078125 0.734375q-0.484375 0 -0.890625 -0.359375q-0.390625 -0.375 -0.390625 -0.84375q0 -0.359375 0.234375 -0.71875l2.59375 -4.078125l-4.828125 0.15625q-0.609375 0.03125 -0.96875 -0.34375q-0.359375 -0.375 -0.359375 -0.859375q0 -0.515625 0.34375 -0.875q0.34375 -0.359375 0.984375 -0.328125l4.828125 0.15625l-2.59375 -4.03125q-0.234375 -0.359375 -0.234375 -0.765625q0 -0.484375 0.390625 -0.84375q0.40625 -0.359375 0.890625 -0.359375q0.671875 0 1.078125 0.71875l2.234375 4.28125l2.234375 -4.234375q0.40625 -0.765625 1.125 -0.765625q0.484375 0 0.84375 0.34375q0.359375 0.34375 0.359375 0.828125q0 0.359375 -0.25 0.796875l-2.515625 4.03125l4.765625 -0.15625zm14.991882 24.0q-0.15625 0.515625 -0.515625 0.796875q-0.359375 0.28125 -0.796875 0.28125q-0.5625 0 -1.0 -0.40625q-0.4375 -0.390625 -0.4375 -0.984375q0 -0.25 0.109375 -0.5625l9.453125 -29.515625q0.15625 -0.53125 0.515625 -0.8125q0.359375 -0.28125 0.796875 -0.28125q0.5625 0 1.0 0.40625q0.4375 0.40625 0.4375 1.046875q0 0.109375 -0.078125 0.515625l-9.484375 29.515625zm40.99933 -3.796875q0.765625 0.046875 1.078125 0.390625q0.328125 0.328125 0.328125 0.890625q0 0.640625 -0.5 1.0q-0.5 0.359375 -1.5 0.28125l-1.078125 -0.078125q-3.203125 -0.25 -4.71875 -1.9375q-1.515625 -1.703125 -1.515625 -5.0625l0 -10.046875l-6.171875 0q-0.203125 9.84375 -2.4375 16.078125q-0.203125 0.5625 -0.6875 0.875q-0.46875 0.328125 -1.03125 0.328125q-0.640625 0 -1.125 -0.390625q-0.46875 -0.40625 -0.46875 -1.09375q0 -0.359375 0.109375 -0.71875q1.078125 -3.078125 1.671875 -7.0q0.609375 -3.921875 0.734375 -8.078125l-2.875 0q-0.6875 0 -1.078125 -0.328125q-0.375 -0.34375 -0.375 -0.90625q0 -0.609375 0.375 -0.96875q0.390625 -0.359375 1.078125 -0.359375l19.15625 0q0.671875 0 1.03125 0.359375q0.359375 0.359375 0.359375 0.96875q0 0.59375 -0.359375 0.921875q-0.359375 0.3125 -1.03125 0.3125l-3.640625 0l0 10.203125q0 2.203125 0.890625 3.1875q0.90625 0.96875 2.703125 1.09375l1.078125 0.078125zm17.168762 -20.203125q0.640625 -0.03125 1.015625 0.328125q0.375 0.359375 0.375 0.875q0 0.484375 -0.375 0.859375q-0.375 0.375 -1.015625 0.34375l-4.765625 -0.15625l2.515625 4.03125q0.25 0.40625 0.25 0.765625q0 0.46875 -0.390625 0.8125q-0.375 0.34375 -0.859375 0.34375q-0.671875 0 -1.078125 -0.71875l-2.234375 -4.234375l-2.234375 4.265625q-0.40625 0.734375 -1.078125 0.734375q-0.484375 0 -0.890625 -0.359375q-0.390625 -0.375 -0.390625 -0.84375q0 -0.359375 0.234375 -0.71875l2.59375 -4.078125l-4.828125 0.15625q-0.609375 0.03125 -0.96875 -0.34375q-0.359375 -0.375 -0.359375 -0.859375q0 -0.515625 0.34375 -0.875q0.34375 -0.359375 0.984375 -0.328125l4.828125 0.15625l-2.59375 -4.03125q-0.234375 -0.359375 -0.234375 -0.765625q0 -0.484375 0.390625 -0.84375q0.40625 -0.359375 0.890625 -0.359375q0.671875 0 1.078125 0.71875l2.234375 4.28125l2.234375 -4.234375q0.40625 -0.765625 1.125 -0.765625q0.484375 0 0.84375 0.34375q0.359375 0.34375 0.359375 0.828125q0 0.359375 -0.25 0.796875l-2.515625 4.03125l4.765625 -0.15625z" fill-rule="nonzero"/><path fill="#000000" fill-opacity="0.0" d="m31.922573 145.1378l151.74803 0l0 68.28346l-151.74803 0z" fill-rule="evenodd"/><path fill="#00aeff" d="m70.990036 174.80452q0.4375 -0.96875 1.390625 -0.96875q0.609375 0 1.078125 0.40625q0.484375 0.390625 0.484375 1.0q0 0.359375 -0.15625 0.640625l-7.796875 16.796875q-0.25 0.515625 -0.734375 0.828125q-0.46875 0.296875 -1.03125 0.296875q-0.5156212 0 -0.9999962 -0.296875q-0.484375 -0.3125 -0.765625 -0.828125l-7.75 -16.796875q-0.171875 -0.28125 -0.171875 -0.609375q0 -0.59375 0.546875 -1.03125q0.546875 -0.4375 1.171875 -0.4375q0.40625 0 0.78125 0.234375q0.390625 0.234375 0.59375 0.6875l6.671871 15.0l6.6875 -14.921875z" fill-rule="nonzero"/><path fill="#00aeff" d="m82.50314 208.89827q-3.234375 0 -4.921875 -2.453125q-1.671875 -2.453125 -1.671875 -7.15625q0 -4.703125 1.671875 -7.15625q1.6875 -2.453125 4.921875 -2.453125q3.21875 0 4.890625 2.4375q1.6875 2.4375 1.6875 7.15625q0 4.71875 -1.6875 7.171875q-1.671875 2.453125 -4.890625 2.453125zm0 -1.84375q2.234375 0 3.296875 -1.890625q1.078125 -1.890625 1.078125 -5.890625q0 -4.03125 -1.0625 -5.890625q-1.046875 -1.875 -3.3125 -1.875q-2.25 0 -3.3125 1.890625q-1.0625 1.875 -1.0625 5.875q0 4.0 1.0625 5.890625q1.0625 1.890625 3.3125 1.890625z" fill-rule="nonzero"/><path fill="#00aeff" d="m103.050964 195.11702q-0.15625 0.515625 -0.515625 0.796875q-0.359375 0.28125 -0.796875 0.28125q-0.5625 0 -1.0 -0.40625q-0.4375 -0.390625 -0.4375 -0.984375q0 -0.25 0.109375 -0.5625l9.453125 -29.515625q0.15625 -0.53125 0.515625 -0.8125q0.359375 -0.28125 0.796875 -0.28125q0.5625 0 1.0 0.40625q0.4375 0.40625 0.4375 1.046875q0 0.109375 -0.078125 0.515625l-9.484375 29.515625zm40.99936 -3.796875q0.765625 0.046875 1.078125 0.390625q0.328125 0.328125 0.328125 0.890625q0 0.640625 -0.5 1.0q-0.5 0.359375 -1.5 0.28125l-1.078125 -0.078125q-3.203125 -0.25 -4.71875 -1.9375q-1.515625 -1.703125 -1.515625 -5.0625l0 -10.046875l-6.171875 0q-0.203125 9.84375 -2.4375 16.078125q-0.203125 0.5625 -0.6875 0.875q-0.46875 0.328125 -1.03125 0.328125q-0.640625 0 -1.125 -0.390625q-0.46875 -0.40625 -0.46875 -1.09375q0 -0.359375 0.109375 -0.71875q1.078125 -3.078125 1.671875 -7.0q0.609375 -3.921875 0.734375 -8.078125l-2.875 0q-0.6875 0 -1.078125 -0.328125q-0.375 -0.34375 -0.375 -0.90625q0 -0.609375 0.375 -0.96875q0.390625 -0.359375 1.078125 -0.359375l19.15625 0q0.671875 0 1.03125 0.359375q0.359375 0.359375 0.359375 0.96875q0 0.59375 -0.359375 0.921875q-0.359375 0.3125 -1.03125 0.3125l-3.640625 0l0 10.203125q0 2.203125 0.890625 3.1875q0.90625 0.96875 2.703125 1.09375l1.078125 0.078125z" fill-rule="nonzero"/><path fill="#00aeff" d="m153.65656 208.89827q-3.234375 0 -4.921875 -2.453125q-1.671875 -2.453125 -1.671875 -7.15625q0 -4.703125 1.671875 -7.15625q1.6875 -2.453125 4.921875 -2.453125q3.21875 0 4.890625 2.4375q1.6875 2.4375 1.6875 7.15625q0 4.71875 -1.6875 7.171875q-1.671875 2.453125 -4.890625 2.453125zm0 -1.84375q2.234375 0 3.296875 -1.890625q1.078125 -1.890625 1.078125 -5.890625q0 -4.03125 -1.0625 -5.890625q-1.046875 -1.875 -3.3125 -1.875q-2.25 0 -3.3125 1.890625q-1.0625 1.875 -1.0625 5.875q0 4.0 1.0625 5.890625q1.0625 1.890625 3.3125 1.890625z" fill-rule="nonzero"/><path fill="#000000" fill-opacity="0.0" d="m370.5761 29.216572l143.4331 38.425198l-15.968536 59.716537l-143.43304 -38.4252z" fill-rule="evenodd"/><path fill="#00aeff" d="m403.04437 65.27911q0.67285156 -0.8226547 1.5935364 -0.57601166q0.58862305 0.15769196 0.9364319 0.67144775q0.36697388 0.50270844 0.20956421 1.0914001q-0.09283447 0.3471756 -0.31643677 0.57844543l-11.870392 14.209137q-0.37469482 0.43343353 -0.9233093 0.60998535q-0.52944946 0.16549683 -1.072815 0.019935608q-0.49804688 -0.13343048 -0.8892517 -0.5455704q-0.387146 -0.42723083 -0.52560425 -0.9981384l-3.1469116 -18.23222q-0.09335327 -0.31617737 -0.008605957 -0.63316727q0.15338135 -0.57359695 0.7946472 -0.8547287q0.64126587 -0.28113556 1.2449951 -0.11940384q0.39239502 0.10512543 0.6940918 0.42858505q0.31677246 0.3275032 0.39590454 0.81781006l2.5697021 16.217346l10.314453 -12.684853zm15.530762 9.078133q-0.54333496 -0.14556122 -0.7936096 -0.6008301q-0.25027466 -0.45526886 -0.10494995 -0.9986725q0.12512207 -0.46793365 0.5802002 -0.718071q0.4701538 -0.24609375 0.9682007 -0.1126709l16.390778 4.3910294q0.54333496 0.14556122 0.7895508 0.615921q0.25027466 0.45526886 0.10498047 0.9986801q-0.12109375 0.45283508 -0.59124756 0.69892883q-0.45507812 0.25013733 -0.9531555 0.11670685l-16.390747 -4.3910217zm-2.0666504 7.7284546q-0.54333496 -0.14556122 -0.7935791 -0.60082245q-0.25027466 -0.45526886 -0.10494995 -0.9986801q0.12512207 -0.46793365 0.5801697 -0.718071q0.4701538 -0.24609375 0.9682312 -0.11266327l16.390778 4.3910294q0.54333496 0.14555359 0.7895508 0.615921q0.25027466 0.45526123 0.10494995 0.9986725q-0.12109375 0.4528427 -0.59124756 0.69893646q-0.4550476 0.25013733 -0.953125 0.11670685l-16.390778 -4.3910294zm49.515045 0.06529999q0.67285156 -0.8226547 1.5935059 -0.57601166q0.58862305 0.15768433 0.9364624 0.67144775q0.36697388 0.50270844 0.20956421 1.0914001q-0.09283447 0.3471756 -0.31643677 0.57844543l-11.870422 14.209137q-0.3746643 0.4334259 -0.9232788 0.6099777q-0.52948 0.16549683 -1.072815 0.019943237q-0.49804688 -0.13343048 -0.8892517 -0.5455704q-0.387146 -0.42723846 -0.52560425 -0.9981384l-3.1469116 -18.232224q-0.09338379 -0.31617737 -0.008605957 -0.63316345q0.15338135 -0.57360077 0.7946472 -0.8547363q0.64126587 -0.28112793 1.2449646 -0.119400024q0.39242554 0.10512543 0.6940918 0.42858887q0.31680298 0.3274994 0.39593506 0.81781006l2.5697021 16.217346l10.314453 -12.684853z" fill-rule="nonzero"/><path fill="#00aeff" d="m474.97424 117.984604q0.48999023 0.16362 0.62564087 0.44260406q0.15478516 0.26792908 0.057922363 0.63020325q-0.10897827 0.40755463 -0.50561523 0.560112q-0.37750244 0.14151001 -0.9992676 -0.07359314l-0.6781311 -0.24636841q-2.0273438 -0.70487976 -2.7177734 -2.0545044q-0.68637085 -1.3647232 -0.10916138 -3.523262l1.7315979 -6.475601l-3.9543152 -1.0593414q-1.8311157 6.30336 -4.3385925 9.934418q-0.23272705 0.32588196 -0.60214233 0.43720245q-0.35836792 0.13046265 -0.72058105 0.033424377q-0.40750122 -0.10916901 -0.6558533 -0.45069122q-0.23321533 -0.337471 -0.11618042 -0.7752228q0.060546875 -0.22641754 0.19656372 -0.4326172q1.2270813 -1.8065033 2.278473 -4.226227q1.0664978 -2.41568 1.8755188 -5.0782623l-1.8564148 -0.4973297q-0.4376831 -0.117256165 -0.63775635 -0.39731598q-0.18093872 -0.2911148 -0.08407593 -0.65338135q0.10092163 -0.37737274 0.4029541 -0.539093q0.321167 -0.1727829 0.7588501 -0.055526733l12.330811 3.3033829q0.4376831 0.117256165 0.5994873 0.41941833q0.18093872 0.29110718 0.08004761 0.6684799q-0.10494995 0.39245605 -0.4029541 0.539093q-0.27886963 0.13557434 -0.71655273 0.018318176l-2.339386 -0.626709l-1.7558289 6.5661697q-0.37942505 1.4188995 0.024597168 2.20652q0.4039917 0.78762054 1.5459595 1.1744232l0.6821594 0.23127747z" fill-rule="nonzero"/><path fill="#000000" fill-opacity="0.0" d="m276.33997 298.4557l299.937 -80.220474l16.0 59.716537l-299.937 80.22049z" fill-rule="evenodd"/><path fill="#00aeff" d="m343.96356 324.83102q0.7517395 -0.15255737 1.1426086 0.09875488q0.401886 0.23214722 0.54748535 0.7754822q0.16577148 0.61880493 -0.22424316 1.0951233q-0.39001465 0.47631836 -1.3762512 0.6592407l-1.0617371 0.20309448q-3.1590881 0.5861206 -5.059967 -0.6522827q-1.9049377 -1.2535095 -2.774353 -4.498413l-2.6001892 -9.70459l-5.9622803 1.5946655q2.3513489 9.560852 1.8063354 16.160156q-0.05065918 0.5957947 -0.43771362 1.0227966q-0.3678894 0.43807983 -0.9112854 0.58340454q-0.6188965 0.16552734 -1.1878967 -0.086639404q-0.5579834 -0.27130127 -0.7359009 -0.93536377q-0.09301758 -0.34713745 -0.08035278 -0.7225342q0.24487305 -3.2518005 -0.1965332 -7.1934814q-0.42633057 -3.9457092 -1.3812256 -7.9926453l-2.7773743 0.74282837q-0.66415405 0.17764282 -1.1264343 -0.038391113q-0.4512329 -0.23513794 -0.59680176 -0.7784729q-0.15771484 -0.58862305 0.11154175 -1.0326233q0.2843628 -0.44805908 0.94851685 -0.6257019l18.505798 -4.949524q0.64904785 -0.17358398 1.0892334 0.08068848q0.44018555 0.25427246 0.5979004 0.8428955q0.153656 0.57351685 -0.10861206 0.9833069q-0.2662964 0.39471436 -0.91534424 0.56829834l-3.5169983 0.9406738l2.6405945 9.855499q0.5701904 2.1280518 1.6853333 2.8487854q1.1261902 0.7015686 2.8944092 0.35806274l1.0617371 -0.20309448zm11.872498 -15.354584q-0.543396 0.1453247 -0.98760986 -0.12402344q-0.44421387 -0.26937866 -0.58981323 -0.8127136q-0.1253357 -0.467865 0.1439209 -0.91189575q0.28433228 -0.44805908 0.7824707 -0.5812988l16.392548 -4.384308q0.543396 -0.1453247 0.9916687 0.13912964q0.44424438 0.26937866 0.58981323 0.8127136q0.12130737 0.4527588 -0.16305542 0.9008179q-0.2692566 0.44403076 -0.7673645 0.5772705l-16.392578 4.384308zm2.0704346 7.7274475q-0.543396 0.1453247 -0.98760986 -0.124053955q-0.44421387 -0.26934814 -0.58981323 -0.8126831q-0.1253357 -0.4678955 0.1439209 -0.91189575q0.28433228 -0.44805908 0.7824707 -0.5812988l16.392548 -4.384308q0.543396 -0.14535522 0.9916687 0.13912964q0.44421387 0.26934814 0.58981323 0.8126831q0.12130737 0.4527893 -0.16305542 0.9008484q-0.2692566 0.44403076 -0.7673645 0.57724l-16.392578 4.3843384zm44.35843 -26.09732q0.73965454 -0.19781494 1.2755127 0.11172485q0.53585815 0.3095703 0.7218933 1.0038452l4.391571 16.390625q1.1282349 4.210846 -0.4711609 6.9353333q-1.5842896 2.720459 -5.8258057 3.8549194q-4.135895 1.1061707 -7.3197937 0.21090698q-1.5949402 -0.39831543 -1.8658752 -1.4095154q-0.14154053 -0.5282593 0.052246094 -0.9520874q0.19378662 -0.42382812 0.66171265 -0.5489807q0.39245605 -0.10498047 1.5302429 0.15682983q1.5444946 0.33093262 2.9709473 0.4022827q1.430481 0.0864563 3.2418213 -0.39801025q2.7471924 -0.7347412 3.7476807 -2.5550537q1.0004883 -1.8203125 0.25238037 -4.6124573l-0.88964844 -3.3203735q-0.31069946 2.0401611 -1.7424927 3.458252q-1.4166565 1.4140625 -3.6959229 2.0236511q-2.4754944 0.6621094 -4.7038574 0.0126953125q-2.2132874 -0.6534729 -3.8551636 -2.4949036q-1.62677 -1.845459 -2.3708496 -4.6224976q-0.7440491 -2.777069 -0.2576294 -5.1877136q0.5015259 -2.4147034 2.0960999 -4.0704346q1.6056213 -1.6748352 4.0811157 -2.3369446q2.2339783 -0.59747314 4.1531677 -0.07562256q1.9191895 0.52182007 3.252716 2.0575562l-0.55804443 -2.0827942q-0.18603516 -0.6942444 0.108306885 -1.2258606q0.29431152 -0.5315857 1.0188293 -0.7253723zm-3.0413513 17.990448q2.7019043 -0.72265625 3.760315 -2.9304504q1.0735168 -2.211853 0.2243042 -5.381317q-0.83706665 -3.124176 -2.842804 -4.512451q-2.0057678 -1.3882751 -4.75296 -0.65353394q-2.7471619 0.7347717 -3.835785 2.950653q-1.0735168 2.211853 -0.2364502 5.336029q0.84921265 3.169464 2.8851624 4.549652q2.0510254 1.3761597 4.798218 0.64141846zm19.73819 -22.456146q1.5827637 -0.55270386 1.966919 0.8811035q0.165802 0.6187744 -0.08432007 1.0738525q-0.25012207 0.45507812 -1.0751953 0.7566223l-1.1299133 0.4316101q-2.5204773 0.91674805 -3.3557434 2.870758q-0.82418823 1.934906 -0.24591064 4.09317l2.5152283 9.387634q0.21029663 0.78482056 -0.10720825 1.2902527q-0.32156372 0.49035645 -1.0158997 0.6760864q-0.69433594 0.18569946 -1.2563477 -0.10070801q-0.54693604 -0.29040527 -0.74508667 -1.0299377l-4.3673096 -16.30008q-0.19815063 -0.7395325 0.14953613 -1.2530518q0.35876465 -0.5326538 1.0229187 -0.71029663q0.61886597 -0.16552734 1.1506958 0.12893677q0.527771 0.2793579 0.7178345 0.9887085l0.5782776 2.1582642q0.35812378 -1.9234619 1.5988159 -3.2095642q1.2557678 -1.2901611 3.1474 -1.9578247l0.53530884 -0.17553711zm22.482086 9.88623q0.42263794 -0.11303711 0.8175354 0.15335083q0.40997314 0.26235962 0.5555725 0.8056946q0.25878906 0.9659424 -0.8703003 2.1251526q-1.1853943 1.1904602 -2.6158447 2.009735q-1.4304504 0.8193054 -2.909729 1.2149353q-4.362274 1.1667175 -7.58963 -0.73587036q-3.2163086 -1.9217529 -4.437561 -6.4797363q-0.7763977 -2.897766 -0.2538452 -5.415161q0.51849365 -2.5324402 2.2135925 -4.295929q1.7061768 -1.7826233 4.3023987 -2.4769897q3.6679688 -0.98101807 6.4694214 0.84140015q2.7974548 1.8073425 3.8933105 5.8974304q0.21029663 0.78482056 0.0014038086 1.2127075q-0.20889282 0.42785645 -0.91833496 0.61761475l-12.437805 3.3265991q2.1264343 6.5479126 8.073669 4.9572754q1.5094299 -0.40371704 2.4870605 -1.1018982q0.9776001 -0.69815063 2.0293274 -1.7234802q0.84259033 -0.8399658 1.1897583 -0.9328308zm-10.106567 -10.672974q-2.4754639 0.66207886 -3.5533142 2.6163025q-1.0667725 1.9350891 -0.5823059 4.830078l10.943481 -2.9269104q-0.8437805 -2.847412 -2.6107178 -4.008423q-1.7669373 -1.1610413 -4.1971436 -0.51104736zm30.470764 5.22641q0.42263794 -0.11303711 0.8175354 0.15335083q0.41000366 0.26235962 0.5555725 0.8056946q0.25878906 0.9659424 -0.8702698 2.1251526q-1.1854248 1.1904602 -2.6158752 2.009735q-1.4304504 0.8193054 -2.9096985 1.2149353q-4.3623047 1.1667175 -7.5896606 -0.73587036q-3.2163086 -1.9217529 -4.4375305 -6.4797363q-0.7764282 -2.897766 -0.25387573 -5.415161q0.51849365 -2.5324402 2.213623 -4.295929q1.7061462 -1.7826233 4.3023987 -2.4769897q3.6679382 -0.98101807 6.4694214 0.84140015q2.7974243 1.8073425 3.89328 5.8974304q0.21029663 0.78482056 0.0014038086 1.2127075q-0.2088623 0.42785645 -0.91830444 0.61761475l-12.437836 3.3265991q2.1264648 6.5479126 8.073669 4.9572754q1.5094299 -0.40371704 2.4870605 -1.1018982q0.9776001 -0.69815063 2.0293274 -1.7234802q0.84259033 -0.8399658 1.1897583 -0.9328308zm-10.106537 -10.672974q-2.4754944 0.66207886 -3.5533447 2.6163025q-1.0667725 1.9350891 -0.5822754 4.830078l10.943451 -2.9269104q-0.8437805 -2.847412 -2.6107178 -4.008423q-1.7669067 -1.1610413 -4.197113 -0.51104736zm24.831146 -17.995575q0.739624 -0.19781494 1.279541 0.12683105q0.53585815 0.3095398 0.7097473 0.9585266l6.5833435 24.570831q0.18600464 0.6942749 -0.11935425 1.2449951q-0.30941772 0.53564453 -1.0490417 0.7334595q-0.73965454 0.19781494 -1.2604065 -0.11578369q-0.5097351 -0.33270264 -0.69573975 -1.0269775l-0.55807495 -2.0827942q-0.38320923 2.011078 -1.7696838 3.4170532q-1.3713989 1.4019165 -3.5751953 1.991333q-2.4754944 0.6621094 -4.7089844 -0.06680298q-2.2183838 -0.7329712 -3.8543396 -2.6730347q-1.6359558 -1.9400635 -2.4244995 -4.8831177q-0.7764282 -2.8977966 -0.32528687 -5.379883q0.45111084 -2.4820862 2.0184631 -4.1790466q1.582428 -1.7009888 4.0579224 -2.3630981q2.2037659 -0.5894165 4.0927734 -0.05947876q1.9041138 0.5258789 3.2376099 2.0615845l-2.7740479 -10.353546q-0.18600464 -0.6942749 0.09725952 -1.2067261q0.29837036 -0.51651 1.0379944 -0.71432495zm-0.53152466 27.05603q2.7320862 -0.7307129 3.725006 -3.001892q0.9929199 -2.2711487 0.07092285 -5.7122803q-0.92196655 -3.4411316 -2.909668 -4.8827515q-1.9917297 -1.4567261 -4.7238464 -0.7260132q-2.7471924 0.7347717 -3.7743225 2.9989014q-1.031189 2.249054 -0.12942505 5.6147156q0.9219971 3.4411316 2.960083 4.950165q2.0340576 1.4938965 4.78125 0.7591553zm23.94809 -23.452728q0.17193604 -1.0487671 1.0927124 -1.295044q0.5886841 -0.15744019 1.146637 0.113861084q0.56903076 0.25216675 0.7267456 0.8407593q0.09298706 0.34713745 0.014831543 0.6591797l-4.596039 26.31543q-0.06790161 0.47103882 -0.38461304 0.79837036q-0.2975464 0.3383789 -0.69000244 0.44332886q-0.5736084 0.15341187 -1.127533 -0.1027832q-0.53479004 -0.2451477 -0.68844604 -0.81866455q-0.08087158 -0.30184937 -0.014862061 -0.6591797l1.1520386 -6.5675354l-12.080841 -14.479645q-0.23883057 -0.22723389 -0.323761 -0.54418945q-0.153656 -0.57351685 0.26141357 -1.1374207q0.4151001 -0.5639038 1.0188599 -0.7253723q0.39245605 -0.10498047 0.81539917 0.024536133q0.4380188 0.12545776 0.75149536 0.51065063l10.327393 12.765106l2.5985718 -16.141388zm18.052673 21.503296q-6.1933594 -6.75412 -8.510468 -15.402222q-2.3211365 -8.6631775 -0.32928467 -17.590332q0.25952148 -1.0236969 1.1199036 -1.2538147q0.45285034 -0.12110901 0.8698425 0.10702515q0.41296387 0.21302795 0.53427124 0.66581726q0.072784424 0.27166748 0.036956787 0.62091064q-1.1950989 8.519943 0.9683533 16.594528q2.1634521 8.074554 7.4589233 14.858551q0.21380615 0.31484985 0.2744751 0.54122925q0.13342285 0.49804688 -0.12182617 0.8736267q-0.2512207 0.39068604 -0.7040405 0.5118103q-0.86035156 0.23010254 -1.5971069 -0.5271301zm13.942688 -30.0607q0.17193604 -1.0487671 1.0927124 -1.295044q0.5886841 -0.15744019 1.1466675 0.113861084q0.5689697 0.25216675 0.7266846 0.8407593q0.09301758 0.34713745 0.014892578 0.6591797l-3.1850586 18.239136q-0.10803223 0.5626526 -0.4951172 0.98965454q-0.37597656 0.40786743 -0.91937256 0.55322266q-0.4981079 0.13320923 -1.0429077 -0.028411865q-0.5487671 -0.17669678 -0.95391846 -0.6020813l-11.833984 -14.2221985q-0.23883057 -0.2272644 -0.32373047 -0.54418945q-0.15368652 -0.57351685 0.26141357 -1.1374207q0.4151001 -0.5639038 1.0188599 -0.7253723q0.39245605 -0.10498047 0.81536865 0.024536133q0.43804932 0.12545776 0.7515259 0.51065063l10.327393 12.765106l2.5985718 -16.141388zm14.067749 22.569092q-0.25952148 1.0236816 -1.1500854 1.2618713q-0.46795654 0.12515259 -0.8808594 -0.087890625q-0.39385986 -0.20196533 -0.5151367 -0.65475464q-0.04449463 -0.16601562 -0.014892578 -0.6591797q1.152771 -8.557159 -0.99853516 -16.586456q-2.1553345 -8.044373 -7.428772 -14.866623q-0.27630615 -0.4275055 -0.31671143 -0.5784302q-0.12536621 -0.467865 0.11480713 -0.8394165q0.25524902 -0.37557983 0.72314453 -0.50071716q0.89056396 -0.2381897 1.6272583 0.51904297q6.1712646 6.7923737 8.480286 15.410278q2.309021 8.61792 0.35949707 17.582275z" fill-rule="nonzero"/><path fill="#000000" fill-opacity="0.0" d="m183.67061 179.27953l34.141724 127.464554" fill-rule="evenodd"/><path stroke="#00aeff" stroke-width="2.0" stroke-linejoin="round" stroke-linecap="butt" d="m183.67061 179.27953l32.368332 120.843796" fill-rule="evenodd"/><path fill="#00aeff" stroke="#00aeff" stroke-width="2.0" stroke-linecap="butt" d="m216.03894 300.12332l-2.7545166 -1.5906677l3.7714233 5.387207l0.5737457 -6.551056z" fill-rule="evenodd"/><path fill="#000000" fill-opacity="0.0" d="m219.11285 308.58792l34.645676 -129.25984" fill-rule="evenodd"/><path stroke="#00aeff" stroke-width="2.0" stroke-linejoin="round" stroke-linecap="butt" d="m219.11285 308.58792l32.87117 -122.63934" fill-rule="evenodd"/><path fill="#00aeff" stroke="#00aeff" stroke-width="2.0" stroke-linecap="butt" d="m251.98404 185.94858l1.5901794 2.754776l-0.5726471 -6.5511475l-3.7723236 5.386551z" fill-rule="evenodd"/><path fill="#000000" fill-opacity="0.0" d="m253.17586 181.49344l28.535416 106.48819" fill-rule="evenodd"/><path stroke="#00aeff" stroke-width="2.0" stroke-linejoin="round" stroke-linecap="butt" d="m253.17586 181.49344l26.761307 99.867584" fill-rule="evenodd"/><path fill="#00aeff" stroke="#00aeff" stroke-width="2.0" stroke-linecap="butt" d="m279.93716 281.36102l-2.7546692 -1.590332l3.7720032 5.38678l0.57302856 -6.551117z" fill-rule="evenodd"/><path fill="#000000" fill-opacity="0.0" d="m283.67715 290.7953l29.7323 -110.99214" fill-rule="evenodd"/><path stroke="#00aeff" stroke-width="2.0" stroke-linejoin="round" stroke-linecap="butt" d="m283.67715 290.7953l27.95874 -104.3714" fill-rule="evenodd"/><path fill="#00aeff" stroke="#00aeff" stroke-width="2.0" stroke-linecap="butt" d="m311.6359 186.42389l1.5906067 2.754547l-0.5736084 -6.551056l-3.7715454 5.3871z" fill-rule="evenodd"/><path fill="#000000" fill-opacity="0.0" d="m314.1811 183.01837l24.346466 90.80316" fill-rule="evenodd"/><path stroke="#00aeff" stroke-width="2.0" stroke-linejoin="round" stroke-linecap="butt" d="m314.1811 183.01837l22.571411 84.18283" fill-rule="evenodd"/><path fill="#00aeff" stroke="#00aeff" stroke-width="2.0" stroke-linecap="butt" d="m336.7525 267.2012l-2.7549133 -1.5899658l3.772766 5.3862305l0.5720825 -6.5512085z" fill-rule="evenodd"/><path fill="#000000" fill-opacity="0.0" d="m341.12598 275.03674l25.070862 -93.60629" fill-rule="evenodd"/><path stroke="#00aeff" stroke-width="2.0" stroke-linejoin="round" stroke-linecap="butt" d="m341.12598 275.03674l23.297607 -86.98547" fill-rule="evenodd"/><path fill="#00aeff" stroke="#00aeff" stroke-width="2.0" stroke-linecap="butt" d="m364.42358 188.05125l1.5906982 2.754486l-0.57385254 -6.5510406l-3.7713318 5.387268z" fill-rule="evenodd"/><path fill="#000000" fill-opacity="0.0" d="m366.03674 183.52756l20.346466 75.90552" fill-rule="evenodd"/><path stroke="#00aeff" stroke-width="2.0" stroke-linejoin="round" stroke-linecap="butt" d="m366.03674 183.52756l18.571838 69.285065" fill-rule="evenodd"/><path fill="#00aeff" stroke="#00aeff" stroke-width="2.0" stroke-linecap="butt" d="m384.60858 252.81262l-2.7547913 -1.5901489l3.7724 5.386505l0.5725403 -6.5511627z" fill-rule="evenodd"/><path fill="#000000" fill-opacity="0.0" d="m387.89764 262.32547l20.566925 -76.72443" fill-rule="evenodd"/><path stroke="#00aeff" stroke-width="2.0" stroke-linejoin="round" stroke-linecap="butt" d="m387.89764 262.32547l18.792236 -70.10399" fill-rule="evenodd"/><path fill="#00aeff" stroke="#00aeff" stroke-width="2.0" stroke-linecap="butt" d="m406.68988 192.22148l1.5901184 2.7548218l-0.57247925 -6.5511475l-3.772461 5.386444z" fill-rule="evenodd"/><path fill="#000000" fill-opacity="0.0" d="m408.74014 188.61154l16.314972 60.91339" fill-rule="evenodd"/><path stroke="#00aeff" stroke-width="2.0" stroke-linejoin="round" stroke-linecap="butt" d="m408.74014 188.61154l14.541687 54.292603" fill-rule="evenodd"/><path fill="#00aeff" stroke="#00aeff" stroke-width="2.0" stroke-linecap="butt" d="m423.2818 242.90413l-2.754486 -1.590683l3.7713623 5.3872375l0.573822 -6.5510406z" fill-rule="evenodd"/><path fill="#000000" fill-opacity="0.0" d="m425.51706 248.59842l16.629913 -62.015747" fill-rule="evenodd"/><path stroke="#00aeff" stroke-width="2.0" stroke-linejoin="round" stroke-linecap="butt" d="m425.51706 248.59842l14.854645 -55.395462" fill-rule="evenodd"/><path fill="#00aeff" stroke="#00aeff" stroke-width="2.0" stroke-linecap="butt" d="m440.3717 193.20296l1.5898743 2.754959l-0.5718689 -6.5512085l-3.7729492 5.3861237z" fill-rule="evenodd"/><path fill="#000000" fill-opacity="0.0" d="m441.7848 191.15224l13.480316 50.267715" fill-rule="evenodd"/><path stroke="#00aeff" stroke-width="2.0" stroke-linejoin="round" stroke-linecap="butt" d="m441.7848 191.15224l11.704956 43.647446" fill-rule="evenodd"/><path fill="#00aeff" stroke="#00aeff" stroke-width="2.0" stroke-linecap="butt" d="m453.48975 234.7997l-2.755005 -1.5898438l3.7730408 5.386078l0.57177734 -6.5512238z" fill-rule="evenodd"/><path fill="#000000" fill-opacity="0.0" d="m456.79004 242.98425l14.834625 -57.385834" fill-rule="evenodd"/><path stroke="#00aeff" stroke-width="2.0" stroke-linejoin="round" stroke-linecap="butt" d="m456.79004 242.98425l13.119171 -50.7498" fill-rule="evenodd"/><path fill="#00aeff" stroke="#00aeff" stroke-width="2.0" stroke-linecap="butt" d="m469.9092 192.23445l1.6146545 2.740509l-0.6309509 -6.5457916l-3.7242126 5.4199524z" fill-rule="evenodd"/><path fill="#000000" fill-opacity="0.0" d="m472.09448 186.5433l10.582672 50.173233" fill-rule="evenodd"/><path stroke="#00aeff" stroke-width="2.0" stroke-linejoin="round" stroke-linecap="butt" d="m472.09448 186.5433l9.168121 43.466614" fill-rule="evenodd"/><path fill="#00aeff" stroke="#00aeff" stroke-width="2.0" stroke-linecap="butt" d="m481.26257 230.00992l-2.664917 -1.736557l3.4760742 5.582321l0.92541504 -6.5106964z" fill-rule="evenodd"/><path fill="#000000" fill-opacity="0.0" d="m484.0525 234.85301l12.4409485 -49.732285" fill-rule="evenodd"/><path stroke="#00aeff" stroke-width="2.0" stroke-linejoin="round" stroke-linecap="butt" d="m484.0525 234.85301l10.777557 -43.082993" fill-rule="evenodd"/><path fill="#00aeff" stroke="#00aeff" stroke-width="2.0" stroke-linecap="butt" d="m494.83008 191.77l1.6360779 2.727768l-0.6822815 -6.540634l-3.6815796 5.4489746z" fill-rule="evenodd"/><path fill="#000000" fill-opacity="0.0" d="m496.9685 187.021l8.251953 42.48819" fill-rule="evenodd"/><path stroke="#00aeff" stroke-width="2.0" stroke-linejoin="round" stroke-linecap="butt" d="m496.9685 187.021l6.94516 35.759735" fill-rule="evenodd"/><path fill="#00aeff" stroke="#00aeff" stroke-width="2.0" stroke-linecap="butt" d="m503.9137 222.78075l-2.6367493 -1.7790985l3.386078 5.6373596l1.0297546 -6.494995z" fill-rule="evenodd"/><path fill="#000000" fill-opacity="0.0" d="m506.5328 230.06824l11.496063 -43.527557" fill-rule="evenodd"/><path stroke="#00aeff" stroke-width="2.0" stroke-linejoin="round" stroke-linecap="butt" d="m506.5328 230.06824l9.745819 -36.900604" fill-rule="evenodd"/><path fill="#00aeff" stroke="#00aeff" stroke-width="2.0" stroke-linecap="butt" d="m516.2786 193.16762l1.6002808 2.7489471l-0.59661865 -6.549011l-3.7525635 5.400345z" fill-rule="evenodd"/><path fill="#000000" fill-opacity="0.0" d="m518.9711 187.021l12.440918 35.40158" fill-rule="evenodd"/><path stroke="#00aeff" stroke-width="2.0" stroke-linejoin="round" stroke-linecap="butt" d="m518.9711 187.021l10.168457 28.93509" fill-rule="evenodd"/><path fill="#00aeff" stroke="#00aeff" stroke-width="2.0" stroke-linecap="butt" d="m529.1396 215.95609l-2.8676758 -1.3762512l4.1707764 5.084305l0.07318115 -6.575714z" fill-rule="evenodd"/><path fill="#000000" fill-opacity="0.0" d="m531.4068 221.93701l12.440979 -36.346466" fill-rule="evenodd"/><path stroke="#00aeff" stroke-width="2.0" stroke-linejoin="round" stroke-linecap="butt" d="m531.4068 221.93701l10.221313 -29.861649" fill-rule="evenodd"/><path fill="#00aeff" stroke="#00aeff" stroke-width="2.0" stroke-linecap="butt" d="m541.6281 192.07536l1.3995972 2.8563385l-0.12677002 -6.5749054l-4.1291504 5.118149z" fill-rule="evenodd"/><path fill="#000000" fill-opacity="0.0" d="m544.3202 188.4567l12.440979 27.275589" fill-rule="evenodd"/><path stroke="#00aeff" stroke-width="2.0" stroke-linejoin="round" stroke-linecap="butt" d="m544.3202 188.4567l9.596558 21.03949" fill-rule="evenodd"/><path fill="#00aeff" stroke="#00aeff" stroke-width="2.0" stroke-linecap="butt" d="m553.91675 209.49619l-2.9797363 -1.1129761l4.610779 4.688919l-0.5180664 -6.5556793z" fill-rule="evenodd"/><path fill="#000000" fill-opacity="0.0" d="m558.1916 217.15486l10.519714 -30.614182" fill-rule="evenodd"/><path stroke="#00aeff" stroke-width="2.0" stroke-linejoin="round" stroke-linecap="butt" d="m558.1916 217.15486l8.292297 -24.132019" fill-rule="evenodd"/><path fill="#00aeff" stroke="#00aeff" stroke-width="2.0" stroke-linecap="butt" d="m566.4839 193.02284l1.3961792 2.8580017l-0.11895752 -6.5750427l-4.135254 5.11322z" fill-rule="evenodd"/><path fill="#000000" fill-opacity="0.0" d="m568.2362 189.41208l11.496094 20.094482" fill-rule="evenodd"/><path stroke="#00aeff" stroke-width="2.0" stroke-linejoin="round" stroke-linecap="butt" d="m568.2362 189.41208l8.092468 14.145111" fill-rule="evenodd"/><path fill="#00aeff" stroke="#00aeff" stroke-width="2.0" stroke-linecap="butt" d="m576.3287 203.55719l-3.0691528 -0.8353729l5.020874 4.2469025l-1.116394 -6.480667z" fill-rule="evenodd"/><path fill="#000000" fill-opacity="0.0" d="m580.67194 208.5433l13.858276 -26.29921" fill-rule="evenodd"/><path stroke="#00aeff" stroke-width="2.0" stroke-linejoin="round" stroke-linecap="butt" d="m580.67194 208.5433l10.662964 -20.235397" fill-rule="evenodd"/><path fill="#00aeff" stroke="#00aeff" stroke-width="2.0" stroke-linecap="butt" d="m591.3349 188.3079l0.9412842 3.03833l0.8909912 -6.5154877l-4.8706055 4.418442z" fill-rule="evenodd"/><path fill="#000000" fill-opacity="0.0" d="m595.021 183.67192l10.519714 22.48819" fill-rule="evenodd"/><path stroke="#00aeff" stroke-width="2.0" stroke-linejoin="round" stroke-linecap="butt" d="m595.021 183.67192l7.6154175 16.279709" fill-rule="evenodd"/><path fill="#00aeff" stroke="#00aeff" stroke-width="2.0" stroke-linecap="butt" d="m602.6364 199.95163l-2.9902954 -1.084259l4.6557007 4.6443634l-0.5811157 -6.5504z" fill-rule="evenodd"/><path fill="#000000" fill-opacity="0.0" d="m605.54333 203.76115l12.91333 -22.960632" fill-rule="evenodd"/><path stroke="#00aeff" stroke-width="2.0" stroke-linejoin="round" stroke-linecap="butt" d="m605.54333 203.76115l9.553406 -16.98648" fill-rule="evenodd"/><path fill="#00aeff" stroke="#00aeff" stroke-width="2.0" stroke-linecap="butt" d="m615.09674 186.77467l0.8578491 3.0629425l1.0688477 -6.488678l-4.989624 4.2835693z" fill-rule="evenodd"/><path fill="#000000" fill-opacity="0.0" d="m619.4147 182.23622l14.3307495 15.779526" fill-rule="evenodd"/><path stroke="#00aeff" stroke-width="2.0" stroke-linejoin="round" stroke-linecap="butt" d="m619.4147 182.23622l9.722656 10.705566" fill-rule="evenodd"/><path fill="#00aeff" stroke="#00aeff" stroke-width="2.0" stroke-linecap="butt" d="m629.1373 192.94177l-3.177124 -0.15286255l5.819519 3.0624237l-2.489563 -6.086685z" fill-rule="evenodd"/><path fill="#000000" fill-opacity="0.0" d="m633.2861 194.19423l14.834656 -16.251968" fill-rule="evenodd"/><path stroke="#00aeff" stroke-width="2.0" stroke-linejoin="round" stroke-linecap="butt" d="m633.2861 194.19423l10.213806 -11.189636" fill-rule="evenodd"/><path fill="#00aeff" stroke="#00aeff" stroke-width="2.0" stroke-linecap="butt" d="m643.4999 183.00461l0.14483643 3.1774902l2.5048828 -6.0803833l-5.8272095 3.04776z" fill-rule="evenodd"/><path fill="#000000" fill-opacity="0.0" d="m648.5932 178.88977l15.77948 7.653534" fill-rule="evenodd"/><path stroke="#00aeff" stroke-width="2.0" stroke-linejoin="round" stroke-linecap="butt" d="m648.5932 178.88977l9.612488 4.6623383" fill-rule="evenodd"/><path fill="#00aeff" stroke="#00aeff" stroke-width="2.0" stroke-linecap="butt" d="m658.2057 183.55211l-3.005249 1.0421295l6.541565 0.67311096l-4.578491 -4.7204742z" fill-rule="evenodd"/></g></svg>