<svg version="1.1" viewBox="0.0 0.0 947.3228346456693 401.0551181102362" fill="none" stroke="none" stroke-linecap="square" stroke-miterlimit="10" xmlns:xlink="http://www.w3.org/1999/xlink" xmlns="http://www.w3.org/2000/svg"><clipPath id="p.0"><path d="m0 0l947.3228 0l0 401.0551l-947.3228 0l0 -401.0551z" clip-rule="nonzero"/></clipPath><g clip-path="url(#p.0)"><path fill="#000000" fill-opacity="0.0" d="m0 0l947.3228 0l0 401.0551l-947.3228 0z" fill-rule="evenodd"/><path fill="#000000" fill-opacity="0.0" d="m363.8819 142.19554l0 0c0 -23.09159 18.719421 -41.811028 41.811005 -41.811028l169.6063 0l0 0c11.088989 0 21.723816 4.405075 29.56488 12.246162c7.8410645 7.841095 12.246155 18.475891 12.246155 29.564865l0 0l0 0c0 23.091583 -18.719421 41.81102 -41.811035 41.81102l-169.6063 0c-23.091583 0 -41.811005 -18.719437 -41.811005 -41.81102z" fill-rule="evenodd"/><path stroke="#00aeff" stroke-width="4.0" stroke-linejoin="round" stroke-linecap="butt" d="m363.8819 142.19554l0 0c0 -23.09159 18.719421 -41.811028 41.811005 -41.811028l169.6063 0l0 0c11.088989 0 21.723816 4.405075 29.56488 12.246162c7.8410645 7.841095 12.246155 18.475891 12.246155 29.564865l0 0l0 0c0 23.091583 -18.719421 41.81102 -41.811035 41.81102l-169.6063 0c-23.091583 0 -41.811005 -18.719437 -41.811005 -41.81102z" fill-rule="evenodd"/><path fill="#00aeff" d="m446.9821 162.1199q0.25 0.515625 0.25 1.09375q0 0.96875 -0.734375 1.609375q-0.734375 0.625 -1.765625 0.625q-1.59375 0 -2.234375 -1.53125l-4.546875 -10.359375l-24.125 0l-4.609375 10.359375q-0.640625 1.53125 -2.234375 1.53125q-1.03125 0 -1.796875 -0.671875q-0.765625 -0.671875 -0.765625 -1.625q0 -0.515625 0.25 -1.03125l18.3125 -40.703117q0.375 -0.890625 1.140625 -1.328125q0.78125 -0.453125 1.671875 -0.453125q0.953125 0 1.71875 0.484375q0.78125 0.46875 1.15625 1.296875l18.3125 40.703117zm-31.234375 -12.921875l20.28125 0l-10.171875 -22.968742l-10.109375 22.968742zm63.41855 -15.875q1.21875 0 1.921875 0.703125q0.703125 0.703125 0.703125 1.859375l0 27.140625q0 6.96875 -3.59375 10.515625q-3.578125 3.5625 -10.609375 3.5625q-6.859375 0 -11.390625 -2.6875q-2.3125 -1.28125 -2.3125 -2.9375q0 -0.90625 0.484375 -1.484375q0.484375 -0.578125 1.25 -0.578125q0.640625 0 2.296875 0.90625q2.25 1.15625 4.421875 1.859375q2.171875 0.703125 5.1875 0.703125q4.53125 0 6.828125 -2.40625q2.3125 -2.40625 2.3125 -7.0l0 -5.515625q-1.34375 3.015625 -4.125 4.625q-2.78125 1.59375 -6.5625 1.59375q-4.09375 0 -7.265625 -1.921875q-3.15625 -1.921875 -4.921875 -5.4375q-1.765625 -3.53125 -1.765625 -8.140625q0 -4.609375 1.765625 -8.125q1.765625 -3.515625 4.921875 -5.4375q3.171875 -1.921875 7.265625 -1.921875q3.71875 0 6.46875 1.609375q2.75 1.59375 4.15625 4.53125l0 -3.453125q0 -1.15625 0.671875 -1.859375q0.671875 -0.703125 1.890625 -0.703125zm-12.15625 26.5625q4.484375 0 7.03125 -2.96875q2.5625 -2.984375 2.5625 -8.234375q0 -5.171875 -2.53125 -8.140625q-2.515625 -2.984375 -7.0625 -2.984375q-4.546875 0 -7.140625 2.984375q-2.59375 2.96875 -2.59375 8.140625q0 5.25 2.59375 8.234375q2.59375 2.96875 7.140625 2.96875zm48.503906 -1.984375q0.703125 0 1.21875 0.578125q0.515625 0.578125 0.515625 1.46875q0 1.609375 -2.234375 2.953125q-2.3125 1.34375 -4.8749695 2.015625q-2.5625 0.671875 -4.984375 0.671875q-7.234375 0 -11.4375 -4.28125q-4.1875 -4.296875 -4.1875 -11.859375q0 -4.796875 1.859375 -8.46875q1.859375 -3.6875 5.21875 -5.734375q3.359375 -2.046875 7.640625 -2.046875q6.09375 0 9.6718445 3.96875q3.578125 3.96875 3.578125 10.75q0 1.28125 -0.515625 1.859375q-0.5 0.578125 -1.65625 0.578125l-20.609344 0q0.578125 11.0 10.4375 11.0q2.5 0 4.28125 -0.671875q1.796875 -0.671875 3.8437195 -1.8125q1.671875 -0.96875 2.234375 -0.96875zm-11.1874695 -20.671875q-4.109375 0 -6.578125 2.5625q-2.453125 2.5625 -2.90625 7.234375l18.12497 0q-0.140625 -4.734375 -2.3749695 -7.265625q-2.234375 -2.53125 -6.265625 -2.53125zm36.477936 -4.03125q11.203125 0 11.203125 12.359375l0 17.34375q0 1.203125 -0.671875 1.875q-0.671875 0.671875 -1.890625 0.671875q-1.21875 0 -1.921875 -0.671875q-0.703125 -0.671875 -0.703125 -1.875l0 -17.03125q0 -4.34375 -1.703125 -6.328125q-1.6875 -1.984375 -5.40625 -1.984375q-4.28125 0 -6.84375 2.625q-2.5625 2.609375 -2.5625 7.09375l0 15.625q0 1.203125 -0.671875 1.875q-0.671875 0.671875 -1.890625 0.671875q-1.21875 0 -1.921875 -0.671875q-0.703125 -0.671875 -0.703125 -1.875l0 -27.015625q0 -1.15625 0.703125 -1.859375q0.703125 -0.703125 1.921875 -0.703125q1.15625 0 1.828125 0.703125q0.671875 0.703125 0.671875 1.796875l0 3.265625q1.53125 -2.875 4.28125 -4.375q2.75 -1.515625 6.28125 -1.515625zm35.07068 28.15625q2.234375 0.203125 2.234375 2.046875q0 1.09375 -0.796875 1.640625q-0.796875 0.546875 -2.40625 0.40625l-1.71875 -0.125q-5.125 -0.375 -7.5625 -3.0625q-2.421875 -2.6875 -2.421875 -8.140625l0 -16.0625l-4.296875 0q-1.078125 0 -1.6875 -0.53125q-0.609375 -0.546875 -0.609375 -1.453125q0 -0.953125 0.609375 -1.53125q0.609375 -0.578125 1.6875 -0.578125l4.296875 0l0 -7.2343674q0 -1.203125 0.703125 -1.875q0.703125 -0.671875 1.921875 -0.671875q1.140625 0 1.84375 0.671875q0.71875 0.671875 0.71875 1.875l0 7.2343674l7.09375 0q1.03125 0 1.640625 0.578125q0.609375 0.578125 0.609375 1.53125q0 0.90625 -0.609375 1.453125q-0.609375 0.53125 -1.640625 0.53125l-7.09375 0l0 16.328125q0 3.515625 1.4375 5.09375q1.4375 1.5625 4.3125 1.75l1.734375 0.125z" fill-rule="nonzero"/><path fill="#000000" fill-opacity="0.0" d="m259.4567 327.143l0 0c0 -23.091583 18.719421 -41.811035 41.811035 -41.811035l378.4567 0c11.088928 0 21.723755 4.4050903 29.56482 12.246155c7.8411255 7.841095 12.246216 18.475891 12.246216 29.56488l0 0l0 0c0 23.091583 -18.719482 41.811005 -41.811035 41.811005l-378.4567 0c-23.091614 0 -41.811035 -18.719421 -41.811035 -41.811005z" fill-rule="evenodd"/><path stroke="#00aeff" stroke-width="4.0" stroke-linejoin="round" stroke-linecap="butt" d="m259.4567 327.143l0 0c0 -23.091583 18.719421 -41.811035 41.811035 -41.811035l378.4567 0c11.088928 0 21.723755 4.4050903 29.56482 12.246155c7.8411255 7.841095 12.246216 18.475891 12.246216 29.56488l0 0l0 0c0 23.091583 -18.719482 41.811005 -41.811035 41.811005l-378.4567 0c-23.091614 0 -41.811035 -18.719421 -41.811035 -41.811005z" fill-rule="evenodd"/><path fill="#00aeff" d="m317.56235 350.083q-1.203125 0 -1.953125 -0.703125q-0.734375 -0.703125 -0.734375 -1.859375l0 -40.0q0 -1.15625 0.734375 -1.859375q0.75 -0.703125 1.953125 -0.703125l23.9375 0q1.15625 0 1.796875 0.578125q0.640625 0.578125 0.640625 1.609375q0 1.015625 -0.640625 1.59375q-0.640625 0.578125 -1.796875 0.578125l-21.4375 0l0 15.671875l20.15625 0q1.15625 0 1.796875 0.578125q0.640625 0.578125 0.640625 1.609375q0 1.015625 -0.640625 1.59375q-0.640625 0.578125 -1.796875 0.578125l-20.15625 0l0 16.375l21.4375 0q1.15625 0 1.796875 0.546875q0.640625 0.546875 0.640625 1.640625q0 1.015625 -0.640625 1.59375q-0.640625 0.578125 -1.796875 0.578125l-23.9375 0zm49.4823 -31.9375q11.203125 0 11.203125 12.359375l0 17.34375q0 1.203125 -0.671875 1.875q-0.671875 0.671875 -1.890625 0.671875q-1.21875 0 -1.921875 -0.671875q-0.703125 -0.671875 -0.703125 -1.875l0 -17.03125q0 -4.34375 -1.703125 -6.328125q-1.6875 -1.984375 -5.40625 -1.984375q-4.28125 0 -6.84375 2.625q-2.5625 2.609375 -2.5625 7.09375l0 15.625q0 1.203125 -0.671875 1.875q-0.671875 0.671875 -1.890625 0.671875q-1.21875 0 -1.921875 -0.671875q-0.703125 -0.671875 -0.703125 -1.875l0 -27.015625q0 -1.15625 0.703125 -1.859375q0.703125 -0.703125 1.921875 -0.703125q1.15625 0 1.828125 0.703125q0.671875 0.703125 0.671875 1.796875l0 3.265625q1.53125 -2.875 4.28125 -4.375q2.75 -1.515625 6.28125 -1.515625zm43.13321 1.734375q0.703125 -1.546875 2.234375 -1.546875q0.96875 0 1.734375 0.640625q0.765625 0.640625 0.765625 1.609375q0 0.578125 -0.25 1.015625l-12.484375 26.890625q-0.390625 0.828125 -1.15625 1.3125q-0.765625 0.46875 -1.65625 0.46875q-0.84375 0 -1.609375 -0.46875q-0.765625 -0.484375 -1.21875 -1.3125l-12.40625 -26.890625q-0.265625 -0.4375 -0.265625 -0.953125q0 -0.96875 0.859375 -1.671875q0.875 -0.703125 1.90625 -0.703125q0.640625 0 1.234375 0.390625q0.609375 0.375 0.9375 1.078125l10.6875 24.0l10.6875 -23.859375zm13.884186 30.515625q-1.15625 0 -1.890625 -0.671875q-0.734375 -0.671875 -0.734375 -1.875l0 -27.015625q0 -1.21875 0.734375 -1.890625q0.734375 -0.671875 1.890625 -0.671875q1.15625 0 1.859375 0.671875q0.703125 0.671875 0.703125 1.890625l0 27.015625q0 1.28125 -0.703125 1.921875q-0.703125 0.625 -1.859375 0.625zm0.015625 -38.84375q-1.546875 0 -2.515625 -0.890625q-0.953125 -0.890625 -0.953125 -2.375q0 -1.40625 0.953125 -2.296875q0.96875 -0.890625 2.515625 -0.890625q1.53125 0 2.484375 0.890625q0.96875 0.890625 0.96875 2.296875q0 1.484375 -0.96875 2.375q-0.953125 0.890625 -2.484375 0.890625zm27.629242 6.71875q2.6875 -0.1875 2.6875 2.1875q0 1.015625 -0.578125 1.625q-0.5625 0.609375 -1.96875 0.734375l-1.921875 0.1875q-4.296875 0.390625 -6.375 3.046875q-2.078125 2.65625 -2.078125 6.234375l0 15.5625q0 1.28125 -0.703125 1.921875q-0.703125 0.625 -1.859375 0.625q-1.15625 0 -1.890625 -0.671875q-0.734375 -0.671875 -0.734375 -1.875l0 -27.015625q0 -1.21875 0.765625 -1.890625q0.78125 -0.671875 1.859375 -0.671875q1.03125 0 1.734375 0.671875q0.703125 0.671875 0.703125 1.828125l0 3.578125q1.34375 -2.8125 3.796875 -4.28125q2.46875 -1.46875 5.671875 -1.734375l0.890625 -0.0625zm19.46759 32.265625q-4.421875 0 -7.78125 -1.984375q-3.359375 -1.984375 -5.1875 -5.65625q-1.828125 -3.6875 -1.828125 -8.5625q0 -4.859375 1.828125 -8.53125q1.828125 -3.6875 5.1875 -5.671875q3.359375 -1.984375 7.78125 -1.984375q4.40625 0 7.796875 1.984375q3.390625 1.984375 5.21875 5.671875q1.828125 3.671875 1.828125 8.53125q0 4.875 -1.828125 8.5625q-1.828125 3.671875 -5.21875 5.65625q-3.390625 1.984375 -7.796875 1.984375zm0 -4.296875q4.609375 0 7.0625 -3.03125q2.46875 -3.046875 2.46875 -8.875q0 -5.6875 -2.5 -8.78125q-2.5 -3.109375 -7.03125 -3.109375q-4.546875 0 -7.046875 3.109375q-2.5 3.09375 -2.5 8.78125q0 5.765625 2.46875 8.84375q2.46875 3.0625 7.078125 3.0625zm38.269928 -28.09375q11.2031555 0 11.2031555 12.359375l0 17.34375q0 1.203125 -0.671875 1.875q-0.671875 0.671875 -1.890625 0.671875q-1.21875 0 -1.921875 -0.671875q-0.703125 -0.671875 -0.703125 -1.875l0 -17.03125q0 -4.34375 -1.703125 -6.328125q-1.6875 -1.984375 -5.4062805 -1.984375q-4.28125 0 -6.84375 2.625q-2.5625 2.609375 -2.5625 7.09375l0 15.625q0 1.203125 -0.671875 1.875q-0.671875 0.671875 -1.890625 0.671875q-1.21875 0 -1.921875 -0.671875q-0.703125 -0.671875 -0.703125 -1.875l0 -27.015625q0 -1.15625 0.703125 -1.859375q0.703125 -0.703125 1.921875 -0.703125q1.15625 0 1.828125 0.703125q0.671875 0.703125 0.671875 1.796875l0 3.265625q1.53125 -2.875 4.28125 -4.375q2.75 -1.515625 6.28125 -1.515625zm55.35196 0q10.375 0 10.375 12.359375l0 17.34375q0 1.203125 -0.703125 1.875q-0.703125 0.671875 -1.859375 0.671875q-1.15625 0 -1.890625 -0.671875q-0.734375 -0.671875 -0.734375 -1.875l0 -17.21875q0 -4.296875 -1.546875 -6.203125q-1.53125 -1.921875 -4.796875 -1.921875q-3.890625 0 -6.140625 2.625q-2.234375 2.609375 -2.234375 7.09375l0 15.625q0 1.203125 -0.734375 1.875q-0.734375 0.671875 -1.890625 0.671875q-1.15625 0 -1.859375 -0.671875q-0.703125 -0.671875 -0.703125 -1.875l0 -17.21875q0 -4.296875 -1.53125 -6.203125q-1.53125 -1.921875 -4.859375 -1.921875q-3.84375 0 -6.125 2.625q-2.265625 2.609375 -2.265625 7.09375l0 15.625q0 1.203125 -0.703125 1.875q-0.703125 0.671875 -1.859375 0.671875q-1.15625 0 -1.890625 -0.671875q-0.734375 -0.671875 -0.734375 -1.875l0 -27.015625q0 -1.15625 0.734375 -1.859375q0.734375 -0.703125 1.890625 -0.703125q1.09375 0 1.796875 0.671875q0.703125 0.671875 0.703125 1.828125l0 3.078125q1.40625 -2.75 3.890625 -4.21875q2.5 -1.484375 5.765625 -1.484375q7.296875 0 9.546875 6.140625q1.34375 -2.8125 4.09375 -4.46875q2.75 -1.671875 6.265625 -1.671875zm43.965393 24.703125q0.703125 0 1.21875 0.578125q0.515625 0.578125 0.515625 1.46875q0 1.609375 -2.234375 2.953125q-2.3125 1.34375 -4.875 2.015625q-2.5625 0.671875 -4.984375 0.671875q-7.234375 0 -11.4375 -4.28125q-4.1875 -4.296875 -4.1875 -11.859375q0 -4.796875 1.859375 -8.46875q1.859375 -3.6875 5.21875 -5.734375q3.359375 -2.046875 7.640625 -2.046875q6.09375 0 9.671875 3.96875q3.578125 3.96875 3.578125 10.75q0 1.28125 -0.515625 1.859375q-0.5 0.578125 -1.65625 0.578125l-20.609375 0q0.578125 11.0 10.4375 11.0q2.5 0 4.28125 -0.671875q1.796875 -0.671875 3.84375 -1.8125q1.671875 -0.96875 2.234375 -0.96875zm-11.1875 -20.671875q-4.109375 0 -6.578125 2.5625q-2.453125 2.5625 -2.90625 7.234375l18.125 0q-0.140625 -4.734375 -2.375 -7.265625q-2.234375 -2.53125 -6.265625 -2.53125zm36.477966 -4.03125q11.203125 0 11.203125 12.359375l0 17.34375q0 1.203125 -0.671875 1.875q-0.671875 0.671875 -1.890625 0.671875q-1.21875 0 -1.921875 -0.671875q-0.703125 -0.671875 -0.703125 -1.875l0 -17.03125q0 -4.34375 -1.703125 -6.328125q-1.6875 -1.984375 -5.40625 -1.984375q-4.28125 0 -6.84375 2.625q-2.5625 2.609375 -2.5625 7.09375l0 15.625q0 1.203125 -0.671875 1.875q-0.671875 0.671875 -1.890625 0.671875q-1.21875 0 -1.921875 -0.671875q-0.703125 -0.671875 -0.703125 -1.875l0 -27.015625q0 -1.15625 0.703125 -1.859375q0.703125 -0.703125 1.921875 -0.703125q1.15625 0 1.828125 0.703125q0.671875 0.703125 0.671875 1.796875l0 3.265625q1.53125 -2.875 4.28125 -4.375q2.75 -1.515625 6.28125 -1.515625zm35.07068 28.15625q2.234375 0.203125 2.234375 2.046875q0 1.09375 -0.796875 1.640625q-0.796875 0.546875 -2.40625 0.40625l-1.71875 -0.125q-5.125 -0.375 -7.5625 -3.0625q-2.421875 -2.6875 -2.421875 -8.140625l0 -16.0625l-4.296875 0q-1.078125 0 -1.6875 -0.53125q-0.609375 -0.546875 -0.609375 -1.453125q0 -0.953125 0.609375 -1.53125q0.609375 -0.578125 1.6875 -0.578125l4.296875 0l0 -7.234375q0 -1.203125 0.703125 -1.875q0.703125 -0.671875 1.921875 -0.671875q1.140625 0 1.84375 0.671875q0.71875 0.671875 0.71875 1.875l0 7.234375l7.09375 0q1.03125 0 1.640625 0.578125q0.609375 0.578125 0.609375 1.53125q0 0.90625 -0.609375 1.453125q-0.609375 0.53125 -1.640625 0.53125l-7.09375 0l0 16.328125q0 3.515625 1.4375 5.09375q1.4375 1.5625 4.3125 1.75l1.734375 0.125z" fill-rule="nonzero"/><path fill="#000000" fill-opacity="0.0" d="m398.98425 32.10105l183.02362 0l0 68.28346l-183.02362 0z" fill-rule="evenodd"/><path fill="#00aeff" d="m434.8586 80.92403q-1.84375 0 -3.5 -0.4375q-1.65625 -0.4375 -2.9375 -1.25q-0.71875 -0.46875 -1.03125 -0.890625q-0.296875 -0.421875 -0.296875 -1.015625q0 -0.53125 0.296875 -0.859375q0.3125 -0.34375 0.78125 -0.34375q0.484375 0 1.40625 0.59375q1.203125 0.71875 2.375 1.140625q1.1875 0.421875 2.9375 0.421875q2.171875 0 3.359375 -0.75q1.203125 -0.765625 1.203125 -2.203125q0 -0.890625 -0.4375 -1.421875q-0.4375 -0.546875 -1.515625 -0.96875q-1.078125 -0.421875 -3.15625 -0.859375q-3.53125 -0.75 -5.046875 -2.03125q-1.515625 -1.28125 -1.515625 -3.484375q0 -1.71875 0.953125 -3.0312462q0.96875 -1.328125 2.65625 -2.078125q1.703125 -0.765625 3.859375 -0.765625q1.5625 0 3.015625 0.421875q1.46875 0.40625 2.59375 1.171875q1.359375 0.953125 1.359375 1.9999962q0 0.515625 -0.328125 0.875q-0.3125 0.359375 -0.75 0.359375q-0.484375 0 -1.4375 -0.671875q-1.125 -0.71875 -2.125 -1.1093712q-1.0 -0.40625 -2.484375 -0.40625q-1.875 0 -3.015625 0.8437462q-1.140625 0.828125 -1.140625 2.234375q0 0.875 0.421875 1.421875q0.421875 0.53125 1.390625 0.953125q0.984375 0.421875 2.828125 0.8125q2.71875 0.609375 4.21875 1.328125q1.5 0.71875 2.140625 1.765625q0.640625 1.03125 0.640625 2.640625q0 2.515625 -2.125 4.0625q-2.109375 1.53125 -5.59375 1.53125zm21.4375 -2.640625q1.40625 0.125 1.40625 1.28125q0 0.671875 -0.5 1.015625q-0.5 0.34375 -1.5 0.265625l-1.09375 -0.078125q-3.1875 -0.25 -4.71875 -1.921875q-1.515625 -1.6875 -1.515625 -5.078125l0 -10.046871l-2.671875 0q-0.6875 0 -1.078125 -0.328125q-0.375 -0.34375 -0.375 -0.90625q0 -0.609375 0.375 -0.96875q0.390625 -0.359375 1.078125 -0.359375l2.671875 0l0 -4.515625q0 -0.765625 0.4375 -1.171875q0.4375 -0.421875 1.203125 -0.421875q0.71875 0 1.15625 0.421875q0.4375 0.40625 0.4375 1.171875l0 4.515625l4.453125 0q0.640625 0 1.015625 0.359375q0.375 0.359375 0.375 0.96875q0 0.5625 -0.375 0.90625q-0.375 0.328125 -1.015625 0.328125l-4.453125 0l0 10.203121q0 2.203125 0.90625 3.1875q0.90625 0.96875 2.703125 1.09375l1.078125 0.078125zm12.553101 -17.593746q7.328125 0 7.328125 7.671871l0 10.875q0 0.71875 -0.421875 1.171875q-0.421875 0.4375 -1.140625 0.4375q-0.71875 0 -1.15625 -0.4375q-0.4375 -0.453125 -0.4375 -1.171875l0 -1.90625q-0.765625 1.71875 -2.328125 2.65625q-1.5625 0.9375 -3.59375 0.9375q-1.890625 0 -3.46875 -0.75q-1.578125 -0.765625 -2.5 -2.125q-0.921875 -1.359375 -0.921875 -3.0q0 -2.203125 1.125 -3.421875q1.125 -1.21875 3.6875 -1.75q2.5625 -0.546875 7.109375 -0.546875l0.890625 0l0 -1.328125q0 -2.40625 -0.984375 -3.515625q-0.984375 -1.1249962 -3.1875 -1.1249962q-2.71875 0 -5.515625 1.4843712q-1.078125 0.671875 -1.515625 0.671875q-0.484375 0 -0.8125 -0.359375q-0.3125 -0.359375 -0.3125 -0.921875q0 -0.5468712 0.34375 -0.9687462q0.34375 -0.421875 1.09375 -0.859375q1.40625 -0.8125 3.1875 -1.265625q1.78125 -0.453125 3.53125 -0.453125zm-1.3125 17.671871q2.40625 0 3.9375 -1.609375q1.546875 -1.625 1.546875 -4.1875l0 -1.15625l-0.71875 0q-3.53125 0 -5.375 0.296875q-1.828125 0.296875 -2.609375 1.0q-0.78125 0.703125 -0.78125 2.0625q0 1.5625 1.140625 2.578125q1.140625 1.015625 2.859375 1.015625zm23.559357 -0.078125q1.40625 0.125 1.40625 1.28125q0 0.671875 -0.5 1.015625q-0.5 0.34375 -1.5 0.265625l-1.09375 -0.078125q-3.1875 -0.25 -4.71875 -1.921875q-1.515625 -1.6875 -1.515625 -5.078125l0 -10.046871l-2.671875 0q-0.6875 0 -1.078125 -0.328125q-0.375 -0.34375 -0.375 -0.90625q0 -0.609375 0.375 -0.96875q0.390625 -0.359375 1.078125 -0.359375l2.671875 0l0 -4.515625q0 -0.765625 0.4375 -1.171875q0.4375 -0.421875 1.203125 -0.421875q0.71875 0 1.15625 0.421875q0.4375 0.40625 0.4375 1.171875l0 4.515625l4.453125 0q0.640625 0 1.015625 0.359375q0.375 0.359375 0.375 0.96875q0 0.5625 -0.375 0.90625q-0.375 0.328125 -1.015625 0.328125l-4.453125 0l0 10.203121q0 2.203125 0.90625 3.1875q0.90625 0.96875 2.703125 1.09375l1.078125 0.078125zm19.678131 -2.15625q0.4375 0 0.75 0.359375q0.328125 0.359375 0.328125 0.921875q0 1.0 -1.390625 1.828125q-1.453125 0.84375 -3.046875 1.265625q-1.59375 0.421875 -3.125 0.421875q-4.515625 0 -7.140625 -2.671875q-2.609375 -2.6875 -2.609375 -7.40625q0 -3.0 1.15625 -5.296875q1.15625 -2.3124962 3.25 -3.5781212q2.109375 -1.28125 4.796875 -1.28125q3.796875 0 6.03125 2.484375q2.2343445 2.4687462 2.2343445 6.703121q0 0.8125 -0.31246948 1.171875q-0.3125 0.359375 -1.046875 0.359375l-12.875 0q0.359375 6.875 6.515625 6.875q1.5625 0 2.6875 -0.421875q1.125 -0.421875 2.40625 -1.140625q1.03125 -0.59375 1.390625 -0.59375zm-7.0 -12.921871q-2.5625 0 -4.109375 1.6093712q-1.53125 1.59375 -1.8125 4.515625l11.328125 0q-0.078125 -2.96875 -1.484375 -4.546875q-1.40625 -1.5781212 -3.921875 -1.5781212zm18.361237 23.999996q-4.234375 -8.125 -4.234375 -17.078125q0 -8.968746 4.234375 -17.078121q0.515625 -0.921875 1.40625 -0.921875q0.46875 0 0.8125 0.328125q0.34375 0.3125 0.34375 0.78125q0 0.28125 -0.125 0.609375q-3.359375 7.921875 -3.359375 16.281246q0 8.359375 3.359375 16.28125q0.125 0.359375 0.125 0.59375q0 0.515625 -0.34375 0.8125q-0.34375 0.3125 -0.8125 0.3125q-0.890625 0 -1.40625 -0.921875zm16.200562 -8.921875q1.40625 0.125 1.40625 1.28125q0 0.671875 -0.5 1.015625q-0.5 0.34375 -1.5 0.265625l-1.09375 -0.078125q-3.1875 -0.25 -4.71875 -1.921875q-1.515625 -1.6875 -1.515625 -5.078125l0 -10.046871l-2.671875 0q-0.6875 0 -1.078064 -0.328125q-0.375 -0.34375 -0.375 -0.90625q0 -0.609375 0.375 -0.96875q0.39056396 -0.359375 1.078064 -0.359375l2.671875 0l0 -4.515625q0 -0.765625 0.4375 -1.171875q0.4375 -0.421875 1.203125 -0.421875q0.71875 0 1.15625 0.421875q0.4375 0.40625 0.4375 1.171875l0 4.515625l4.453125 0q0.640625 0 1.015625 0.359375q0.375 0.359375 0.375 0.96875q0 0.5625 -0.375 0.90625q-0.375 0.328125 -1.015625 0.328125l-4.453125 0l0 10.203121q0 2.203125 0.90625 3.1875q0.90625 0.96875 2.703125 1.09375l1.078125 0.078125zm9.034363 8.921875q-0.515625 0.921875 -1.4375 0.921875q-0.484375 0 -0.828125 -0.3125q-0.328125 -0.296875 -0.328125 -0.765625q0 -0.171875 0.15625 -0.640625q3.328125 -7.96875 3.328125 -16.28125q0 -8.328121 -3.328125 -16.281246q-0.15625 -0.484375 -0.15625 -0.640625q0 -0.484375 0.328125 -0.78125q0.34375 -0.296875 0.828125 -0.296875q0.921875 0 1.4375 0.921875q4.203125 8.15625 4.203125 17.078121q0 8.921875 -4.203125 17.078125z" fill-rule="nonzero"/><path fill="#000000" fill-opacity="0.0" d="m617.1102 142.19554c66.63281 0 120.21051 46.23622 133.26562 92.47244c13.055115 46.23622 -14.4123535 92.47243 -28.824646 92.47243" fill-rule="evenodd"/><path stroke="#00aeff" stroke-width="4.0" stroke-linejoin="round" stroke-linecap="butt" d="m617.1102 142.19554c66.63281 0 120.21045 46.23622 133.26556 92.47244c6.527588 23.118118 2.9244995 46.23622 -4.1119995 63.574783c-1.7590942 4.334656 -3.7328491 8.308075 -5.8165283 11.829987c-0.260437 0.44024658 -0.52264404 0.8734131 -0.7863159 1.2993774l-0.007019043 0.011138916" fill-rule="evenodd"/><path fill="#00aeff" stroke="#00aeff" stroke-width="4.0" stroke-linecap="butt" d="m735.3162 306.39975l-9.354309 16.901428l18.029846 -6.9344177z" fill-rule="evenodd"/><path fill="#000000" fill-opacity="0.0" d="m259.4567 327.143c-20.326828 0 -53.708755 -46.236237 -40.65364 -92.47244c13.055115 -46.23622 72.54729 -92.47244 145.09459 -92.47244" fill-rule="evenodd"/><path stroke="#00aeff" stroke-width="4.0" stroke-linejoin="round" stroke-linecap="butt" d="m259.4567 327.143c-20.326813 0 -53.70877 -46.236237 -40.653656 -92.47244c6.5275726 -23.118103 24.664398 -46.23622 50.237732 -63.5748c12.786682 -8.669312 27.432495 -15.893723 43.415833 -20.950806c7.9916687 -2.528534 16.317719 -4.515259 24.912964 -5.8698273c0.5372009 -0.08465576 1.07547 -0.16685486 1.6147461 -0.24655151c0.26965332 -0.039855957 0.53952026 -0.0790863 0.8097229 -0.11769104l0.16317749 -0.022903442" fill-rule="evenodd"/><path fill="#00aeff" stroke="#00aeff" stroke-width="4.0" stroke-linecap="butt" d="m340.4224 150.47852l17.64215 -7.8686676l-18.57254 -5.312393z" fill-rule="evenodd"/><path fill="#000000" fill-opacity="0.0" d="m753.80054 217.04855l183.02362 0l0 68.28348l-183.02362 0z" fill-rule="evenodd"/><path fill="#00aeff" d="m781.2055 245.63716q7.328125 0 7.328125 7.671875l0 10.874985q0 0.71875 -0.421875 1.171875q-0.421875 0.4375 -1.140625 0.4375q-0.71875 0 -1.15625 -0.4375q-0.4375 -0.453125 -0.4375 -1.171875l0 -1.90625q-0.765625 1.71875 -2.328125 2.65625q-1.5625 0.9375 -3.59375 0.9375q-1.890625 0 -3.46875 -0.75q-1.578125 -0.765625 -2.5 -2.125q-0.921875 -1.359375 -0.921875 -3.0q0 -2.203125 1.125 -3.421875q1.125 -1.2187347 3.6875 -1.7499847q2.5625 -0.546875 7.109375 -0.546875l0.890625 0l0 -1.328125q0 -2.40625 -0.984375 -3.515625q-0.984375 -1.125 -3.1875 -1.125q-2.71875 0 -5.515625 1.484375q-1.078125 0.671875 -1.515625 0.671875q-0.484375 0 -0.8125 -0.359375q-0.3125 -0.359375 -0.3125 -0.921875q0 -0.546875 0.34375 -0.96875q0.34375 -0.421875 1.09375 -0.859375q1.40625 -0.8125 3.1875 -1.265625q1.78125 -0.453125 3.53125 -0.453125zm-1.3125 17.67186q2.40625 0 3.9375 -1.609375q1.546875 -1.625 1.546875 -4.1875l0 -1.15625l-0.71875 0q-3.53125 0 -5.375 0.296875q-1.828125 0.296875 -2.609375 1.0q-0.78125 0.703125 -0.78125 2.0625q0 1.5625 1.140625 2.578125q1.140625 1.015625 2.859375 1.015625zm22.606262 2.5625q-2.734375 0 -4.828125 -1.234375q-2.09375 -1.25 -3.234375 -3.53125q-1.140625 -2.28125 -1.140625 -5.2812347q0 -3.0 1.171875 -5.3125q1.1875 -2.328125 3.296875 -3.59375q2.125 -1.28125 4.890625 -1.28125q1.515625 0 3.015625 0.421875q1.5 0.40625 2.625 1.21875q0.71875 0.46875 1.015625 0.9375q0.296875 0.453125 0.296875 1.015625q0 0.5625 -0.296875 0.921875q-0.296875 0.359375 -0.78125 0.359375q-0.28125 0 -0.609375 -0.15625q-0.3125 -0.171875 -0.53125 -0.328125q-0.21875 -0.15625 -0.296875 -0.203125q-1.046875 -0.671875 -1.984375 -1.0625q-0.9375 -0.40625 -2.296875 -0.40625q-2.921875 0 -4.546875 1.984375q-1.609375 1.96875 -1.609375 5.484375q0 3.5312347 1.609375 5.4531097q1.625 1.90625 4.546875 1.90625q1.359375 0 2.34375 -0.390625q0.984375 -0.40625 1.984375 -1.078125q0.4375 -0.28125 0.828125 -0.484375q0.40625 -0.203125 0.6875 -0.203125q0.4375 0 0.734375 0.359375q0.296875 0.359375 0.296875 0.921875q0 0.515625 -0.28125 0.9375q-0.265625 0.421875 -1.03125 0.9375q-1.125 0.765625 -2.703125 1.234375q-1.578125 0.453125 -3.171875 0.453125zm20.153076 -2.640625q1.40625 0.125 1.40625 1.28125q0 0.671875 -0.5 1.015625q-0.5 0.34375 -1.5 0.265625l-1.09375 -0.078125q-3.1875 -0.25 -4.71875 -1.921875q-1.515625 -1.6875 -1.515625 -5.078125l0 -10.04686l-2.671875 0q-0.6875 0 -1.078125 -0.328125q-0.375 -0.34375 -0.375 -0.90625q0 -0.609375 0.375 -0.96875q0.390625 -0.359375 1.078125 -0.359375l2.671875 0l0 -4.515625q0 -0.765625 0.4375 -1.171875q0.4375 -0.421875 1.203125 -0.421875q0.71875 0 1.15625 0.421875q0.4375 0.40625 0.4375 1.171875l0 4.515625l4.453125 0q0.640625 0 1.015625 0.359375q0.375 0.359375 0.375 0.96875q0 0.5625 -0.375 0.90625q-0.375 0.328125 -1.015625 0.328125l-4.453125 0l0 10.20311q0 2.203125 0.90625 3.1875q0.90625 0.96875 2.703125 1.09375l1.078125 0.078125zm6.2406616 2.5625q-0.71875 0 -1.1875 -0.421875q-0.453125 -0.421875 -0.453125 -1.1875l0 -16.874985q0 -0.765625 0.453125 -1.171875q0.46875 -0.421875 1.1875 -0.421875q0.71875 0 1.15625 0.421875q0.4375 0.40625 0.4375 1.171875l0 16.874985q0 0.8125 -0.4375 1.21875q-0.4375 0.390625 -1.15625 0.390625zm0 -24.281235q-0.953125 0 -1.5625 -0.5625q-0.59375 -0.5625 -0.59375 -1.484375q0 -0.875 0.59375 -1.4375q0.609375 -0.5625 1.5625 -0.5625q0.953125 0 1.546875 0.5625q0.609375 0.5625 0.609375 1.4375q0 0.921875 -0.609375 1.484375q-0.59375 0.5625 -1.546875 0.5625zm15.717468 24.35936q-2.765625 0 -4.859375 -1.234375q-2.09375 -1.25 -3.234375 -3.546875q-1.140625 -2.296875 -1.140625 -5.3437347q0 -3.03125 1.140625 -5.328125q1.140625 -2.3125 3.234375 -3.546875q2.09375 -1.234375 4.859375 -1.234375q2.765625 0 4.875 1.234375q2.125 1.234375 3.265625 3.546875q1.140625 2.296875 1.140625 5.328125q0 3.0468597 -1.140625 5.3437347q-1.140625 2.296875 -3.265625 3.546875q-2.109375 1.234375 -4.875 1.234375zm0 -2.6875q2.875 0 4.421875 -1.890625q1.546875 -1.90625 1.546875 -5.5468597q0 -3.5625 -1.5625 -5.5q-1.5625 -1.9375 -4.40625 -1.9375q-2.84375 0 -4.40625 1.9375q-1.546875 1.9375 -1.546875 5.5q0 3.6093597 1.53125 5.5312347q1.546875 1.90625 4.421875 1.90625zm23.918762 -17.54686q7.0 0 7.0 7.71875l0 10.82811q0 0.765625 -0.421875 1.1875q-0.421875 0.421875 -1.171875 0.421875q-0.765625 0 -1.203125 -0.421875q-0.4375 -0.421875 -0.4375 -1.1875l0 -10.64061q0 -2.71875 -1.0625 -3.953125q-1.0625 -1.234375 -3.375 -1.234375q-2.6875 0 -4.296875 1.640625q-1.59375 1.640625 -1.59375 4.4375l0 9.749985q0 0.765625 -0.421875 1.1875q-0.40625 0.421875 -1.171875 0.421875q-0.765625 0 -1.203125 -0.421875q-0.4375 -0.421875 -0.4375 -1.1875l0 -16.874985q0 -0.71875 0.4375 -1.15625q0.4375 -0.4375 1.203125 -0.4375q0.71875 0 1.140625 0.4375q0.421875 0.4375 0.421875 1.125l0 2.03125q0.953125 -1.796875 2.671875 -2.734375q1.71875 -0.9375 3.921875 -0.9375zm18.28247 26.51561q-4.234375 -8.125 -4.234375 -17.07811q0 -8.96875 4.234375 -17.078125q0.515625 -0.921875 1.40625 -0.921875q0.46875 0 0.8125 0.328125q0.34375 0.3125 0.34375 0.78125q0 0.28125 -0.125 0.609375q-3.359375 7.921875 -3.359375 16.28125q0 8.35936 3.359375 16.281235q0.125 0.359375 0.125 0.59375q0 0.515625 -0.34375 0.8125q-0.34375 0.3125 -0.8125 0.3125q-0.890625 0 -1.40625 -0.921875zm16.200623 -8.921875q1.40625 0.125 1.40625 1.28125q0 0.671875 -0.5 1.015625q-0.5 0.34375 -1.5 0.265625l-1.09375 -0.078125q-3.1875 -0.25 -4.71875 -1.921875q-1.515625 -1.6875 -1.515625 -5.078125l0 -10.04686l-2.671875 0q-0.6875 0 -1.078125 -0.328125q-0.375 -0.34375 -0.375 -0.90625q0 -0.609375 0.375 -0.96875q0.390625 -0.359375 1.078125 -0.359375l2.671875 0l0 -4.515625q0 -0.765625 0.4375 -1.171875q0.4375 -0.421875 1.203125 -0.421875q0.71875 0 1.15625 0.421875q0.4375 0.40625 0.4375 1.171875l0 4.515625l4.453125 0q0.640625 0 1.015625 0.359375q0.375 0.359375 0.375 0.96875q0 0.5625 -0.375 0.90625q-0.375 0.328125 -1.015625 0.328125l-4.453125 0l0 10.20311q0 2.203125 0.90625 3.1875q0.90625 0.96875 2.703125 1.09375l1.078125 0.078125zm9.034363 8.921875q-0.515625 0.921875 -1.4375 0.921875q-0.484375 0 -0.828125 -0.3125q-0.328125 -0.296875 -0.328125 -0.765625q0 -0.171875 0.15625 -0.640625q3.328125 -7.96875 3.328125 -16.281235q0 -8.328125 -3.328125 -16.28125q-0.15625 -0.484375 -0.15625 -0.640625q0 -0.484375 0.328125 -0.78125q0.34375 -0.296875 0.828125 -0.296875q0.921875 0 1.4375 0.921875q4.203125 8.15625 4.203125 17.078125q0 8.92186 -4.203125 17.07811z" fill-rule="nonzero"/><path fill="#000000" fill-opacity="0.0" d="m10.496063 201.70998l204.47244 0l0 83.622055l-204.47244 0z" fill-rule="evenodd"/><path fill="#00aeff" d="m41.372993 214.04599q1.671875 -0.125 1.671875 1.359375q0 0.640625 -0.359375 1.015625q-0.359375 0.375 -1.234375 0.453125l-1.203125 0.125q-2.671875 0.234375 -3.984375 1.90625q-1.296875 1.65625 -1.296875 3.890625l0 9.71875q0 0.8125 -0.4375 1.21875q-0.4375 0.390625 -1.15625 0.390625q-0.71875 0 -1.1875 -0.421875q-0.453125 -0.421875 -0.453125 -1.1875l0 -16.875q0 -0.765625 0.46875 -1.171875q0.484375 -0.421875 1.171875 -0.421875q0.640625 0 1.078125 0.421875q0.4375 0.40625 0.4375 1.140625l0 2.234375q0.84375 -1.765625 2.375 -2.6875q1.546875 -0.921875 3.546875 -1.078125l0.5625 -0.03125zm19.157486 15.359375q0.4375 0 0.75 0.359375q0.328125 0.359375 0.328125 0.921875q0 1.0 -1.390625 1.828125q-1.453125 0.84375 -3.046875 1.265625q-1.59375 0.421875 -3.125 0.421875q-4.515625 0 -7.140625 -2.671875q-2.609375 -2.6875 -2.609375 -7.40625q0 -3.0 1.15625 -5.296875q1.15625 -2.3125 3.25 -3.578125q2.109375 -1.28125 4.796875 -1.28125q3.796875 0 6.03125 2.484375q2.234375 2.46875 2.234375 6.703125q0 0.8125 -0.3125 1.171875q-0.3125 0.359375 -1.046875 0.359375l-12.875 0q0.359375 6.875 6.515625 6.875q1.5625 0 2.6875 -0.421875q1.125 -0.421875 2.40625 -1.140625q1.03125 -0.59375 1.390625 -0.59375zm-7.0 -12.921875q-2.5625 0 -4.109375 1.609375q-1.53125 1.59375 -1.8125 4.515625l11.328125 0q-0.078125 -2.96875 -1.484375 -4.546875q-1.40625 -1.578125 -3.921875 -1.578125zm39.40248 -1.40625q0.40625 -0.953125 1.3125 -0.953125q0.609375 0 1.078125 0.40625q0.484375 0.390625 0.484375 0.984375q0 0.28125 -0.109375 0.609375l-6.640625 16.796875q-0.25 0.515625 -0.71875 0.828125q-0.453125 0.296875 -1.0 0.296875q-0.53125 0 -1.0 -0.296875q-0.453125 -0.3125 -0.6875 -0.828125l-5.515625 -14.046875l-5.484375 14.046875q-0.203125 0.515625 -0.6875 0.828125q-0.46875 0.296875 -1.03125 0.296875q-0.515625 0 -1.0 -0.296875q-0.484375 -0.3125 -0.71875 -0.828125l-6.640625 -16.765625q-0.125 -0.3125 -0.125 -0.546875q0 -0.640625 0.53125 -1.078125q0.546875 -0.453125 1.1875 -0.453125q0.96875 0 1.359375 0.96875l5.484375 14.75l5.640625 -14.640625q0.234375 -0.515625 0.65625 -0.796875q0.421875 -0.28125 0.90625 -0.28125q0.515625 0 0.9375 0.28125q0.421875 0.28125 0.625 0.796875l5.640625 14.609375l5.515625 -14.6875zm14.632462 -1.109375q7.328125 0 7.328125 7.671875l0 10.875q0 0.71875 -0.421875 1.171875q-0.421875 0.4375 -1.140625 0.4375q-0.71875 0 -1.15625 -0.4375q-0.4375 -0.453125 -0.4375 -1.171875l0 -1.90625q-0.765625 1.71875 -2.328125 2.65625q-1.5625 0.9375 -3.59375 0.9375q-1.890625 0 -3.46875 -0.75q-1.578125 -0.765625 -2.5 -2.125q-0.921875 -1.359375 -0.921875 -3.0q0 -2.203125 1.125 -3.421875q1.125 -1.21875 3.6875 -1.75q2.5625 -0.546875 7.109375 -0.546875l0.890625 0l0 -1.328125q0 -2.40625 -0.984375 -3.515625q-0.984375 -1.125 -3.1875 -1.125q-2.71875 0 -5.515625 1.484375q-1.078125 0.671875 -1.515625 0.671875q-0.484375 0 -0.8125 -0.359375q-0.3125 -0.359375 -0.3125 -0.921875q0 -0.546875 0.34375 -0.96875q0.34375 -0.421875 1.09375 -0.859375q1.40625 -0.8125 3.1875 -1.265625q1.78125 -0.453125 3.53125 -0.453125zm-1.3125 17.671875q2.40625 0 3.9375 -1.609375q1.546875 -1.625 1.546875 -4.1875l0 -1.15625l-0.71875 0q-3.53125 0 -5.375 0.296875q-1.828125 0.296875 -2.609375 1.0q-0.78125 0.703125 -0.78125 2.0625q0 1.5625 1.140625 2.578125q1.140625 1.015625 2.859375 1.015625zm24.199974 -17.59375q1.671875 -0.125 1.671875 1.359375q0 0.640625 -0.359375 1.015625q-0.359375 0.375 -1.234375 0.453125l-1.203125 0.125q-2.6718674 0.234375 -3.9843674 1.90625q-1.296875 1.65625 -1.296875 3.890625l0 9.71875q0 0.8125 -0.4375 1.21875q-0.4375 0.390625 -1.15625 0.390625q-0.71875 0 -1.1875 -0.421875q-0.453125 -0.421875 -0.453125 -1.1875l0 -16.875q0 -0.765625 0.46875 -1.171875q0.484375 -0.421875 1.171875 -0.421875q0.640625 0 1.078125 0.421875q0.4375 0.40625 0.4375 1.140625l0 2.234375q0.84375 -1.765625 2.375 -2.6875q1.546875 -0.921875 3.5468674 -1.078125l0.5625 -0.03125zm19.719986 -8.53125q0.765625 0 1.203125 0.453125q0.4375 0.4375 0.4375 1.109375l0 25.4375q0 0.71875 -0.4375 1.171875q-0.4375 0.4375 -1.203125 0.4375q-0.765625 0 -1.1875 -0.4375q-0.40625 -0.453125 -0.40625 -1.171875l0 -2.15625q-0.890625 1.84375 -2.59375 2.84375q-1.6875 1.0 -3.96875 1.0q-2.5625 0 -4.53125 -1.28125q-1.953125 -1.28125 -3.03125 -3.578125q-1.078125 -2.296875 -1.078125 -5.34375q0 -3.0 1.078125 -5.28125q1.078125 -2.28125 3.03125 -3.515625q1.96875 -1.234375 4.53125 -1.234375q2.28125 0 3.96875 1.0q1.703125 1.0 2.59375 2.828125l0 -10.71875q0 -0.71875 0.40625 -1.140625q0.421875 -0.421875 1.1875 -0.421875zm-7.515625 26.0q2.828125 0 4.375 -1.9375q1.546875 -1.9375 1.546875 -5.5q0 -3.5625 -1.546875 -5.46875q-1.546875 -1.921875 -4.375 -1.921875q-2.84375 0 -4.421875 1.921875q-1.578125 1.90625 -1.578125 5.390625q0 3.5625 1.578125 5.546875q1.578125 1.96875 4.421875 1.96875zm20.514374 8.96875q-4.234375 -8.125 -4.234375 -17.078125q0 -8.96875 4.234375 -17.078125q0.515625 -0.921875 1.40625 -0.921875q0.46875 0 0.8125 0.328125q0.34375 0.3125 0.34375 0.78125q0 0.28125 -0.125 0.609375q-3.359375 7.921875 -3.359375 16.28125q0 8.359375 3.359375 16.28125q0.125 0.359375 0.125 0.59375q0 0.515625 -0.34375 0.8125q-0.34375 0.3125 -0.8125 0.3125q-0.890625 0 -1.40625 -0.921875zm16.200592 -8.921875q1.40625 0.125 1.40625 1.28125q0 0.671875 -0.5 1.015625q-0.5 0.34375 -1.5 0.265625l-1.09375 -0.078125q-3.1875 -0.25 -4.71875 -1.921875q-1.515625 -1.6875 -1.515625 -5.078125l0 -10.046875l-2.671875 0q-0.6875 0 -1.078125 -0.328125q-0.375 -0.34375 -0.375 -0.90625q0 -0.609375 0.375 -0.96875q0.390625 -0.359375 1.078125 -0.359375l2.671875 0l0 -4.515625q0 -0.765625 0.4375 -1.171875q0.4375 -0.421875 1.203125 -0.421875q0.71875 0 1.15625 0.421875q0.4375 0.40625 0.4375 1.171875l0 4.515625l4.453125 0q0.640625 0 1.015625 0.359375q0.375 0.359375 0.375 0.96875q0 0.5625 -0.375 0.90625q-0.375 0.328125 -1.015625 0.328125l-4.453125 0l0 10.203125q0 2.203125 0.90625 3.1875q0.90625 0.96875 2.703125 1.09375l1.078125 0.078125zm9.034363 8.921875q-0.515625 0.921875 -1.4375 0.921875q-0.484375 0 -0.828125 -0.3125q-0.328125 -0.296875 -0.328125 -0.765625q0 -0.171875 0.15625 -0.640625q3.328125 -7.96875 3.328125 -16.28125q0 -8.328125 -3.328125 -16.28125q-0.15625 -0.484375 -0.15625 -0.640625q0 -0.484375 0.328125 -0.78125q0.34375 -0.296875 0.828125 -0.296875q0.921875 0 1.4375 0.921875q4.203125 8.15625 4.203125 17.078125q0 8.921875 -4.203125 17.078125z" fill-rule="nonzero"/><path fill="#00aeff" d="m34.694855 282.20224q-1.84375 0 -3.5 -0.4375q-1.65625 -0.4375 -2.9375 -1.25q-0.71875 -0.46875 -1.03125 -0.890625q-0.296875 -0.421875 -0.296875 -1.015625q0 -0.53125 0.296875 -0.859375q0.3125 -0.34375 0.78125 -0.34375q0.484375 0 1.40625 0.59375q1.203125 0.71875 2.375 1.140625q1.1875 0.421875 2.9375 0.421875q2.171875 0 3.359375 -0.75q1.203125 -0.765625 1.203125 -2.203125q0 -0.890625 -0.4375 -1.421875q-0.4375 -0.546875 -1.515625 -0.96875q-1.078125 -0.421875 -3.15625 -0.859375q-3.53125 -0.75 -5.046875 -2.03125q-1.515625 -1.28125 -1.515625 -3.484375q0 -1.71875 0.953125 -3.03125q0.96875 -1.328125 2.65625 -2.078125q1.703125 -0.765625 3.859375 -0.765625q1.5625 0 3.015625 0.421875q1.46875 0.40625 2.59375 1.171875q1.359375 0.953125 1.359375 2.0q0 0.515625 -0.328125 0.875q-0.3125 0.359375 -0.75 0.359375q-0.484375 0 -1.4375 -0.671875q-1.125 -0.71875 -2.125 -1.109375q-1.0 -0.40625 -2.484375 -0.40625q-1.875 0 -3.015625 0.84375q-1.140625 0.828125 -1.140625 2.234375q0 0.875 0.421875 1.421875q0.421875 0.53125 1.390625 0.953125q0.984375 0.421875 2.828125 0.8125q2.71875 0.609375 4.21875 1.328125q1.5 0.71875 2.140625 1.765625q0.640625 1.03125 0.640625 2.640625q0 2.515625 -2.125 4.0625q-2.109375 1.53125 -5.59375 1.53125zm21.437485 -2.640625q1.40625 0.125 1.40625 1.28125q0 0.671875 -0.5 1.015625q-0.5 0.34375 -1.5 0.265625l-1.09375 -0.078125q-3.1875 -0.25 -4.71875 -1.921875q-1.515625 -1.6875 -1.515625 -5.078125l0 -10.046875l-2.671875 0q-0.6875 0 -1.078125 -0.328125q-0.375 -0.34375 -0.375 -0.90625q0 -0.609375 0.375 -0.96875q0.390625 -0.359375 1.078125 -0.359375l2.671875 0l0 -4.515625q0 -0.765625 0.4375 -1.171875q0.4375 -0.421875 1.203125 -0.421875q0.71875 0 1.15625 0.421875q0.4375 0.40625 0.4375 1.171875l0 4.515625l4.453125 0q0.640625 0 1.015625 0.359375q0.375 0.359375 0.375 0.96875q0 0.5625 -0.375 0.90625q-0.375 0.328125 -1.015625 0.328125l-4.453125 0l0 10.203125q0 2.203125 0.90625 3.1875q0.90625 0.96875 2.703125 1.09375l1.078125 0.078125zm12.553116 -17.59375q7.328125 0 7.328125 7.671875l0 10.875q0 0.71875 -0.421875 1.171875q-0.421875 0.4375 -1.140625 0.4375q-0.71875 0 -1.15625 -0.4375q-0.4375 -0.453125 -0.4375 -1.171875l0 -1.90625q-0.765625 1.71875 -2.328125 2.65625q-1.5625 0.9375 -3.59375 0.9375q-1.890625 0 -3.46875 -0.75q-1.578125 -0.765625 -2.5 -2.125q-0.921875 -1.359375 -0.921875 -3.0q0 -2.203125 1.125 -3.421875q1.125 -1.21875 3.6875 -1.75q2.5625 -0.546875 7.109375 -0.546875l0.890625 0l0 -1.328125q0 -2.40625 -0.984375 -3.515625q-0.984375 -1.125 -3.1875 -1.125q-2.71875 0 -5.515625 1.484375q-1.078125 0.671875 -1.515625 0.671875q-0.484375 0 -0.8125 -0.359375q-0.3125 -0.359375 -0.3125 -0.921875q0 -0.546875 0.34375 -0.96875q0.34375 -0.421875 1.09375 -0.859375q1.40625 -0.8125 3.1875 -1.265625q1.78125 -0.453125 3.53125 -0.453125zm-1.3125 17.671875q2.40625 0 3.9375 -1.609375q1.546875 -1.625 1.546875 -4.1875l0 -1.15625l-0.71875 0q-3.53125 0 -5.375 0.296875q-1.828125 0.296875 -2.609375 1.0q-0.78125 0.703125 -0.78125 2.0625q0 1.5625 1.140625 2.578125q1.140625 1.015625 2.859375 1.015625zm23.559357 -0.078125q1.40625 0.125 1.40625 1.28125q0 0.671875 -0.5 1.015625q-0.5 0.34375 -1.5 0.265625l-1.09375 -0.078125q-3.1875 -0.25 -4.71875 -1.921875q-1.515625 -1.6875 -1.515625 -5.078125l0 -10.046875l-2.671875 0q-0.6875 0 -1.078125 -0.328125q-0.375 -0.34375 -0.375 -0.90625q0 -0.609375 0.375 -0.96875q0.390625 -0.359375 1.078125 -0.359375l2.671875 0l0 -4.515625q0 -0.765625 0.4375 -1.171875q0.4375 -0.421875 1.203125 -0.421875q0.71875 0 1.15625 0.421875q0.4375 0.40625 0.4375 1.171875l0 4.515625l4.453125 0q0.640625 0 1.015625 0.359375q0.375 0.359375 0.375 0.96875q0 0.5625 -0.375 0.90625q-0.375 0.328125 -1.015625 0.328125l-4.453125 0l0 10.203125q0 2.203125 0.90625 3.1875q0.90625 0.96875 2.703125 1.09375l1.078125 0.078125zm19.678116 -2.15625q0.4375 0 0.75 0.359375q0.328125 0.359375 0.328125 0.921875q0 1.0 -1.390625 1.828125q-1.453125 0.84375 -3.046875 1.265625q-1.59375 0.421875 -3.125 0.421875q-4.515625 0 -7.140625 -2.671875q-2.609375 -2.6875 -2.609375 -7.40625q0 -3.0 1.15625 -5.296875q1.15625 -2.3125 3.25 -3.578125q2.109375 -1.28125 4.796875 -1.28125q3.796875 0 6.03125 2.484375q2.234375 2.46875 2.234375 6.703125q0 0.8125 -0.3125 1.171875q-0.3125 0.359375 -1.046875 0.359375l-12.875 0q0.359375 6.875 6.515625 6.875q1.5625 0 2.6875 -0.421875q1.125 -0.421875 2.40625 -1.140625q1.03125 -0.59375 1.390625 -0.59375zm-7.0 -12.921875q-2.5625 0 -4.109375 1.609375q-1.53125 1.59375 -1.8125 4.515625l11.328125 0q-0.078125 -2.96875 -1.484375 -4.546875q-1.40625 -1.578125 -3.921875 -1.578125zm18.361237 24.0q-4.234375 -8.125 -4.234375 -17.078125q0 -8.96875 4.234375 -17.078125q0.515625 -0.921875 1.40625 -0.921875q0.46875 0 0.8125 0.328125q0.34375 0.3125 0.34375 0.78125q0 0.28125 -0.125 0.609375q-3.359375 7.921875 -3.359375 16.28125q0 8.359375 3.359375 16.28125q0.125 0.359375 0.125 0.59375q0 0.515625 -0.34375 0.8125q-0.34375 0.3125 -0.8125 0.3125q-0.890625 0 -1.40625 -0.921875zm16.200607 -8.921875q1.40625 0.125 1.40625 1.28125q0 0.671875 -0.5 1.015625q-0.5 0.34375 -1.5 0.265625l-1.09375 -0.078125q-3.1875 -0.25 -4.71875 -1.921875q-1.515625 -1.6875 -1.515625 -5.078125l0 -10.046875l-2.671875 0q-0.6875 0 -1.078125 -0.328125q-0.375 -0.34375 -0.375 -0.90625q0 -0.609375 0.375 -0.96875q0.390625 -0.359375 1.078125 -0.359375l2.671875 0l0 -4.515625q0 -0.765625 0.4375 -1.171875q0.4375 -0.421875 1.203125 -0.421875q0.71875 0 1.15625 0.421875q0.4375 0.40625 0.4375 1.171875l0 4.515625l4.453125 0q0.640625 0 1.015625 0.359375q0.375 0.359375 0.375 0.96875q0 0.5625 -0.375 0.90625q-0.375 0.328125 -1.015625 0.328125l-4.453125 0l0 10.203125q0 2.203125 0.90625 3.1875q0.90625 0.96875 2.703125 1.09375l1.078125 0.078125zm22.084366 -10.28125q0.515625 0 0.890625 0.359375q0.390625 0.359375 0.390625 0.875q0 0.53125 -0.359375 0.90625q-0.359375 0.375 -0.921875 0.375l-7.25 0l0 7.203125q0 0.5625 -0.359375 0.921875q-0.359375 0.359375 -0.875 0.359375q-0.515625 0 -0.875 -0.375q-0.359375 -0.390625 -0.359375 -0.90625l0 -7.203125l-7.25 0q-0.515625 0 -0.90625 -0.375q-0.375 -0.375 -0.375 -0.90625q0 -0.515625 0.375 -0.875q0.390625 -0.359375 0.90625 -0.359375l7.25 0l0 -7.203125q0 -0.5625 0.359375 -0.9375q0.359375 -0.375 0.875 -0.375q0.515625 0 0.875 0.375q0.359375 0.375 0.359375 0.9375l0 7.203125l7.25 0zm23.20311 9.875q0.71875 0 1.109375 0.359375q0.40625 0.359375 0.40625 1.0q0 0.6875 -0.390625 1.046875q-0.375 0.359375 -1.125 0.359375l-13.25 0q-0.75 0 -1.140625 -0.359375q-0.375 -0.359375 -0.375 -1.046875q0 -0.640625 0.390625 -1.0q0.40625 -0.359375 1.125 -0.359375l4.96875 0l0 -21.4375l-4.359375 2.84375q-0.328125 0.203125 -0.640625 0.203125q-0.5625 0 -0.984375 -0.515625q-0.421875 -0.53125 -0.421875 -1.125q0 -0.84375 0.640625 -1.203125l6.078125 -3.953125q0.6875 -0.453125 1.40625 -0.453125q0.671875 0 1.109375 0.453125q0.453125 0.4375 0.453125 1.234375l0 23.953125l5.0 0zm8.54686 9.328125q-0.515625 0.921875 -1.4375 0.921875q-0.484375 0 -0.828125 -0.3125q-0.328125 -0.296875 -0.328125 -0.765625q0 -0.171875 0.15625 -0.640625q3.328125 -7.96875 3.328125 -16.28125q0 -8.328125 -3.328125 -16.28125q-0.15625 -0.484375 -0.15625 -0.640625q0 -0.484375 0.328125 -0.78125q0.34375 -0.296875 0.828125 -0.296875q0.921875 0 1.4375 0.921875q4.203125 8.15625 4.203125 17.078125q0 8.921875 -4.203125 17.078125z" fill-rule="nonzero"/></g></svg>